<svg viewBox="0 0 150 140" fill="none" xmlns="http://www.w3.org/2000/svg">
<path fill-rule="evenodd" clip-rule="evenodd" d="M75.4172 1.10938L75.4947 77.804L74.6605 77.8049L74.583 1.1102L75.4172 1.10938Z" fill="#9CA3AF"/>
<path fill-rule="evenodd" clip-rule="evenodd" d="M1.31009 54.2095L75.268 77.9119L75.5244 77.1243L1.56651 53.4219L1.31009 54.2095Z" fill="#9CA3AF"/>
<path fill-rule="evenodd" clip-rule="evenodd" d="M148.461 53.1667L74.0231 76.6731L74.2761 77.4618L148.714 53.9554L148.461 53.1667Z" fill="#9CA3AF"/>
<path d="M75.3066 77.5423C75.3066 77.626 75.2382 77.6939 75.1538 77.6939C75.0694 77.6939 75.001 77.626 75.001 77.5423C75.001 77.4585 75.0694 77.3906 75.1538 77.3906C75.2382 77.3906 75.3066 77.4585 75.3066 77.5423Z" fill="black"/>
<path fill-rule="evenodd" clip-rule="evenodd" d="M75.5843 77.3758L30.0167 139.86L29.3408 139.375L74.9084 76.8906L75.5843 77.3758Z" fill="#9CA3AF"/>
<path fill-rule="evenodd" clip-rule="evenodd" d="M120.721 139.217L75.0939 76.8881L74.4189 77.3745L120.046 139.703L120.721 139.217Z" fill="#9CA3AF"/>
<path fill-rule="evenodd" clip-rule="evenodd" d="M74.9998 2.4528L3.16852 54.2332L30.6056 138.016H119.394L146.831 54.2332L74.9998 2.4528ZM149.182 53.4752L74.9998 0L0.817383 53.4752L29.1525 140H120.847L149.182 53.4752Z" fill="#F3F4F6"/>
<path fill-rule="evenodd" clip-rule="evenodd" d="M75.0079 16.1756L16.3273 58.4763L38.7413 126.92H111.275L133.689 58.4763L75.0079 16.1756ZM134.179 58.3182L75.0079 15.6641L15.8369 58.3182L38.4382 127.334H111.578L134.179 58.3182Z" fill="#F3F4F6"/>
<path fill-rule="evenodd" clip-rule="evenodd" d="M74.996 41.7186L40.7999 66.3693L53.8617 106.255H96.1304L109.192 66.3693L74.996 41.7186ZM109.683 66.2112L74.996 41.207L40.3096 66.2112L53.5586 106.669H96.4335L109.683 66.2112Z" fill="#F3F4F6"/>
<path fill-rule="evenodd" clip-rule="evenodd" d="M74.9972 58.742L57.1241 71.626L63.951 92.4728H86.0434L92.8703 71.626L74.9972 58.742ZM93.3606 71.468L74.9972 58.2305L56.6338 71.468L63.648 92.8867H86.3464L93.3606 71.468Z" fill="#F3F4F6"/>
<path d="M145.328 54.7202L74.9711 4.07812L4.72754 54.7388L31.5535 136.719L118.486 136.778L145.328 54.7202Z" fill="url(#paint0_linear_2145_29082)" fill-opacity="0.8" stroke="#A855F7" stroke-width="2.50268" stroke-linecap="square"/>
<defs>
<linearGradient id="paint0_linear_2145_29082" x1="72.2409" y1="32.8397" x2="72.2409" y2="141.251" gradientUnits="userSpaceOnUse">
<stop offset="0.005" stop-color="#A855F7"/>
<stop offset="1" stop-color="#6366F1"/>
</linearGradient>
</defs>
</svg>
