<svg viewBox="0 0 268 266" fill="none" xmlns="http://www.w3.org/2000/svg">
<path d="M133.701 43.9453L133.799 143.749" stroke="white" stroke-width="0.392927" stroke-linecap="square"/>
<path d="M38.5056 112.902L133.889 143.747" stroke="white" stroke-width="0.392927" stroke-linecap="square"/>
<path d="M229.334 112.824L133.892 143.749" stroke="white" stroke-width="0.392927" stroke-linecap="square"/>
<circle cx="133.788" cy="143.75" r="0.195708" fill="white"/>
<path d="M75.1465 224.696L133.791 143.852" stroke="white" stroke-width="0.392927" stroke-linecap="square"/>
<path d="M133.795 143.851L192.439 224.695" stroke="white" stroke-width="0.392927" stroke-linecap="square"/>
<path d="M39.6131 113.148L133.795 44.7214L227.977 113.148L192.003 223.866H75.5873L39.6131 113.148Z" stroke="white" stroke-width="1.57171"/>
<path d="M58.0487 119.138L133.794 64.1058L209.538 119.138L180.606 208.181H86.9807L58.0487 119.138Z" stroke="white" stroke-width="0.196464"/>
<path d="M89.4333 129.339L133.788 97.1136L178.142 129.339L161.2 181.481H106.375L89.4333 129.339Z" stroke="white" stroke-width="0.196464"/>
<path d="M110.364 136.135L133.792 119.114L157.219 136.135L148.27 163.675H119.313L110.364 136.135Z" stroke="white" stroke-width="0.196464"/>
<path d="M207.959 119.783L133.5 86.1875L52.5566 117.523L97.7433 193.555L182.812 210.353L207.959 119.783Z" fill="url(#paint0_linear_2145_28937)" fill-opacity="0.4" stroke="#A855F7" stroke-width="1.17878" stroke-linecap="square"/>
<circle cx="133.695" cy="86.0875" r="2.25933" fill="#A855F7"/>
<circle cx="208.355" cy="120.076" r="2.25933" fill="#A855F7"/>
<circle cx="182.613" cy="210.255" r="2.25933" fill="#A855F7"/>
<circle cx="97.9371" cy="193.158" r="2.25933" fill="#A855F7"/>
<circle cx="53.5386" cy="117.916" r="2.25933" fill="#A855F7"/>
<path d="M137.628 18.25V16.5833C137.628 15.6993 137.277 14.8514 136.652 14.2263C136.027 13.6012 135.179 13.25 134.295 13.25H129.295C128.411 13.25 127.563 13.6012 126.938 14.2263C126.313 14.8514 125.961 15.6993 125.961 16.5833V18.25" stroke="white" stroke-width="1.66667" stroke-linecap="round" stroke-linejoin="round"/>
<path d="M131.795 9.91667C133.636 9.91667 135.128 8.42428 135.128 6.58333C135.128 4.74238 133.636 3.25 131.795 3.25C129.954 3.25 128.461 4.74238 128.461 6.58333C128.461 8.42428 129.954 9.91667 131.795 9.91667Z" stroke="white" stroke-width="1.66667" stroke-linecap="round" stroke-linejoin="round"/>
<path d="M142.628 18.251V16.5844C142.628 15.8458 142.382 15.1284 141.93 14.5446C141.477 13.9609 140.844 13.544 140.128 13.3594" stroke="white" stroke-width="1.66667" stroke-linecap="round" stroke-linejoin="round"/>
<path d="M137.628 3.35938C138.345 3.54296 138.981 3.95996 139.435 4.54463C139.889 5.12931 140.135 5.8484 140.135 6.58854C140.135 7.32868 139.889 8.04777 139.435 8.63245C138.981 9.21712 138.345 9.63412 137.628 9.81771" stroke="white" stroke-width="1.66667" stroke-linecap="round" stroke-linejoin="round"/>
<path d="M102.238 27.5371C104.173 27.5303 105.567 28.7266 105.574 30.4492C105.567 32.1719 104.173 33.3682 102.238 33.375C100.311 33.3682 98.8955 32.1719 98.9023 30.4492C98.8955 28.7266 100.311 27.5303 102.238 27.5371ZM98.3145 35.2207C100.543 35.2207 103.633 35.2002 106.312 34.8105L106.408 35.7539C103.64 36.2871 100.666 36.3008 98.4785 36.3008L98.3145 35.2207ZM100.188 30.4492C100.174 31.5361 101.049 32.2402 102.238 32.2402C103.428 32.2402 104.303 31.5361 104.303 30.4492C104.303 29.376 103.428 28.6582 102.238 28.6582C101.049 28.6582 100.174 29.376 100.188 30.4492ZM107.078 38.9395V26.6621H108.377V38.9395H107.078ZM114.598 29.7793C114.584 31.9463 115.849 34.168 117.674 35.0566L116.867 36.0957C115.534 35.3984 114.502 34.0312 113.962 32.3975C113.415 34.1338 112.342 35.6035 110.947 36.3281L110.141 35.2754C112.021 34.373 113.292 32.0215 113.299 29.7793V27.6875H114.598V29.7793ZM118.59 38.9121V26.6621H119.889V31.543H121.857V32.6504H119.889V38.9121H118.59ZM133.656 36.2871V37.3535H122.445V36.2871H127.354V33.375H128.639V36.2871H133.656ZM122.828 32.5273C125.187 32.1309 127.292 30.3125 127.299 28.3711V27.4414H128.666V28.3711C128.666 30.3125 130.799 32.1309 133.164 32.5273L132.604 33.5938C130.614 33.2041 128.796 31.9736 127.989 30.2988C127.183 31.9668 125.378 33.2041 123.402 33.5938L122.828 32.5273ZM145.715 33.1016V34.127H134.518V33.1016H139.467V32.0352H135.98V26.9902H144.348V28.0156H137.293V29.0137H144.033V29.9844H137.293V31.0234H144.43V32.0352H140.766V33.1016H145.715ZM135.871 36.916C135.871 35.6309 137.396 34.9268 140.123 34.9336C142.81 34.9268 144.341 35.6309 144.348 36.916C144.341 38.208 142.81 38.8916 140.123 38.8848C137.396 38.8916 135.871 38.208 135.871 36.916ZM137.17 36.916C137.163 37.5791 138.188 37.9141 140.123 37.9004C142.03 37.9141 143.049 37.5791 143.049 36.916C143.049 36.2529 142.03 35.9043 140.123 35.9043C138.188 35.9043 137.163 36.2529 137.17 36.916ZM156.543 29.9707V31.0234H148.135V26.8809H149.42V29.9707H156.543ZM146.645 33.3887V32.3223H157.828V33.3887H146.645ZM147.971 36.6152C147.971 35.1865 149.563 34.3799 152.223 34.3867C154.861 34.3799 156.44 35.1865 156.447 36.6152C156.44 38.0508 154.861 38.8574 152.223 38.8574C149.563 38.8574 147.971 38.0508 147.971 36.6152ZM149.283 36.6152C149.276 37.4014 150.35 37.8525 152.223 37.8594C154.068 37.8525 155.148 37.4014 155.148 36.6152C155.148 35.8223 154.068 35.4053 152.223 35.3984C150.35 35.4053 149.276 35.8223 149.283 36.6152ZM164.582 27.4004V30.9688H160.535V32.6641C162.668 32.6641 163.83 32.6162 165.211 32.3633L165.334 33.416C163.837 33.6689 162.579 33.71 160.139 33.7168H159.25V29.9844H163.283V28.4395H159.236V27.4004H164.582ZM160.645 35.877V34.8242H168.957V38.9258H167.658V35.877H160.645ZM165.361 32.0488V31.0098H167.658V29.4922H165.361V28.4531H167.658V26.6758H168.957V34.209H167.658V32.0488H165.361Z" fill="#F9FAFB"/>
<path d="M257.328 105.752L256.261 104.686C256.168 104.591 256.056 104.516 255.933 104.464C255.81 104.413 255.678 104.387 255.545 104.387C255.411 104.387 255.279 104.413 255.156 104.464C255.033 104.516 254.922 104.591 254.828 104.686L241.261 118.252C241.167 118.346 241.091 118.458 241.04 118.581C240.989 118.704 240.962 118.836 240.962 118.969C240.962 119.102 240.989 119.234 241.04 119.357C241.091 119.48 241.167 119.592 241.261 119.686L242.328 120.752C242.421 120.848 242.533 120.924 242.656 120.976C242.779 121.028 242.911 121.055 243.045 121.055C243.178 121.055 243.311 121.028 243.434 120.976C243.557 120.924 243.668 120.848 243.761 120.752L257.328 107.186C257.424 107.093 257.5 106.981 257.552 106.858C257.604 106.735 257.631 106.603 257.631 106.469C257.631 106.335 257.604 106.203 257.552 106.08C257.5 105.957 257.424 105.846 257.328 105.752Z" stroke="white" stroke-width="1.66667" stroke-linecap="round" stroke-linejoin="round"/>
<path d="M250.961 108.551L253.461 111.051" stroke="white" stroke-width="1.66667" stroke-linecap="round" stroke-linejoin="round"/>
<path d="M243.461 107.719V111.052" stroke="white" stroke-width="1.66667" stroke-linecap="round" stroke-linejoin="round"/>
<path d="M255.128 114.387V117.72" stroke="white" stroke-width="1.66667" stroke-linecap="round" stroke-linejoin="round"/>
<path d="M247.628 104.387V106.053" stroke="white" stroke-width="1.66667" stroke-linecap="round" stroke-linejoin="round"/>
<path d="M245.128 109.387H241.795" stroke="white" stroke-width="1.66667" stroke-linecap="round" stroke-linejoin="round"/>
<path d="M256.795 116.051H253.461" stroke="white" stroke-width="1.66667" stroke-linecap="round" stroke-linejoin="round"/>
<path d="M248.462 105.219H246.795" stroke="white" stroke-width="1.66667" stroke-linecap="round" stroke-linejoin="round"/>
<path d="M235.635 130.805C235.628 132.35 236.735 133.86 238.588 134.496L237.918 135.508C236.544 135.036 235.525 134.052 234.992 132.842C234.459 134.188 233.386 135.269 231.93 135.781L231.26 134.756C233.14 134.113 234.315 132.479 234.309 130.818V130.477H231.656V129.424H238.26V130.477H235.635V130.805ZM233.16 137.627V136.574H241.459V140.881H240.16V137.627H233.16ZM237.891 132.814V131.748H240.16V128.631H241.459V135.959H240.16V132.814H237.891ZM253.135 129.205V130.053C253.142 130.976 253.142 132.145 252.848 133.73H254.557V134.797H243.346V133.73H251.535C251.829 132.24 251.85 131.14 251.85 130.258H244.754V129.205H253.135ZM244.535 137.518V136.492H253.203V140.908H251.904V137.518H244.535ZM259.793 130.463C259.786 132.179 260.9 133.71 262.76 134.318L262.049 135.33C260.702 134.838 259.711 133.895 259.178 132.664C258.651 134.065 257.585 135.166 256.102 135.699L255.404 134.66C257.359 133.99 258.494 132.356 258.508 130.518V129.314H259.793V130.463ZM257.414 138.543C257.407 137.06 258.979 136.198 261.557 136.205C264.12 136.198 265.692 137.06 265.699 138.543C265.692 140.02 264.12 140.86 261.557 140.854C258.979 140.86 257.407 140.02 257.414 138.543ZM258.699 138.543C258.692 139.356 259.759 139.835 261.557 139.828C263.341 139.835 264.407 139.356 264.414 138.543C264.407 137.702 263.341 137.217 261.557 137.217C259.759 137.217 258.692 137.702 258.699 138.543ZM261.775 132.186V131.119H264.359V128.631H265.658V135.863H264.359V132.186H261.775Z" fill="#F9FAFB"/>
<path d="M202.545 230C202.392 230.156 202.307 230.366 202.307 230.584C202.307 230.802 202.392 231.011 202.545 231.167L203.878 232.5C204.034 232.653 204.244 232.739 204.462 232.739C204.68 232.739 204.889 232.653 205.045 232.5L208.187 229.359C208.606 230.285 208.733 231.316 208.55 232.316C208.368 233.316 207.886 234.237 207.167 234.956C206.448 235.674 205.528 236.157 204.528 236.339C203.528 236.521 202.496 236.394 201.57 235.975L195.812 241.734C195.48 242.065 195.031 242.252 194.562 242.252C194.093 242.252 193.643 242.065 193.312 241.734C192.98 241.402 192.794 240.953 192.794 240.484C192.794 240.015 192.98 239.565 193.312 239.234L199.07 233.475C198.651 232.549 198.524 231.518 198.706 230.518C198.889 229.518 199.371 228.597 200.09 227.879C200.809 227.16 201.729 226.677 202.729 226.495C203.729 226.313 204.761 226.44 205.687 226.859L202.553 229.992L202.545 230Z" stroke="white" stroke-width="1.66667" stroke-linecap="round" stroke-linejoin="round"/>
<path d="M175.443 256.855V257.908H170.576V260.287H169.291V257.908H164.232V256.855H175.443ZM165.627 262.652V259.125H166.926V261.6H174.199V262.652H165.627ZM165.668 255.584V251.236H173.994V255.584H165.668ZM166.939 254.559H172.709V252.262H166.939V254.559ZM186.859 250.662V262.912H185.615V250.662H186.859ZM176.168 259.535C177.904 258.489 178.786 256.261 178.793 254.08V253.096H176.537V252.043H182.143V253.096H180.037V254.08C180.037 256.172 180.885 258.271 182.607 259.262L181.828 260.219C180.659 259.521 179.859 258.271 179.429 256.794C178.991 258.394 178.157 259.761 176.961 260.506L176.168 259.535ZM181.24 256.062V254.996H183.141V250.922H184.371V262.297H183.141V256.062H181.24ZM194.502 252.686V253.738H188.418V252.686H190.824V251.018H192.109V252.686H194.502ZM188.814 257.293C188.808 255.646 189.929 254.477 191.467 254.477C193.019 254.477 194.126 255.646 194.133 257.293C194.126 258.968 193.019 260.144 191.467 260.137C189.929 260.144 188.808 258.968 188.814 257.293ZM189.963 257.293C189.956 258.332 190.585 259.029 191.467 259.029C192.349 259.029 192.984 258.332 192.984 257.293C192.984 256.274 192.349 255.563 191.467 255.557C190.585 255.563 189.956 256.274 189.963 257.293ZM195.062 262.338V250.936H196.293V255.762H197.701V250.662H198.932V262.912H197.701V256.828H196.293V262.338H195.062ZM210.758 250.662V256.896H209.459V255.721H206.355V254.709H209.459V253.383H206.506C205.747 255.283 203.895 256.541 201.188 257.17L200.736 256.104C203.676 255.454 205.262 254.087 205.474 252.289H201.379V251.223H206.902C206.902 251.619 206.868 251.995 206.8 252.357H209.459V250.662H210.758ZM202.746 258.441V257.416H210.758V260.52H204.059V261.75H211.127V262.789H202.773V259.535H209.459V258.441H202.746ZM222.543 253.971V255.023H214.135V250.881H215.42V253.971H222.543ZM212.645 257.389V256.322H223.828V257.389H212.645ZM213.971 260.615C213.971 259.187 215.563 258.38 218.223 258.387C220.861 258.38 222.44 259.187 222.447 260.615C222.44 262.051 220.861 262.857 218.223 262.857C215.563 262.857 213.971 262.051 213.971 260.615ZM215.283 260.615C215.276 261.401 216.35 261.853 218.223 261.859C220.068 261.853 221.148 261.401 221.148 260.615C221.148 259.822 220.068 259.405 218.223 259.398C216.35 259.405 215.276 259.822 215.283 260.615ZM230.582 251.4V254.969H226.535V256.664C228.668 256.664 229.83 256.616 231.211 256.363L231.334 257.416C229.837 257.669 228.579 257.71 226.139 257.717H225.25V253.984H229.283V252.439H225.236V251.4H230.582ZM226.645 259.877V258.824H234.957V262.926H233.658V259.877H226.645ZM231.361 256.049V255.01H233.658V253.492H231.361V252.453H233.658V250.676H234.957V258.209H233.658V256.049H231.361Z" fill="#F9FAFB"/>
<path d="M56.6284 237.251C56.6284 237.251 57.4618 236.418 59.9618 236.418C62.4618 236.418 64.1284 238.085 66.6284 238.085C69.1284 238.085 69.9618 237.251 69.9618 237.251V227.251C69.9618 227.251 69.1284 228.085 66.6284 228.085C64.1284 228.085 62.4618 226.418 59.9618 226.418C57.4618 226.418 56.6284 227.251 56.6284 227.251V237.251Z" stroke="white" stroke-width="1.66667" stroke-linecap="round" stroke-linejoin="round"/>
<path d="M56.6284 243.083V237.25" stroke="white" stroke-width="1.66667" stroke-linecap="round" stroke-linejoin="round"/>
<path d="M48.9512 253.355C48.9512 254.736 49.8262 256.083 51.3848 256.637L50.7695 257.621C49.6143 257.177 48.8076 256.336 48.3701 255.311C47.9395 256.425 47.1191 257.341 45.9297 257.826L45.3145 256.869C46.8662 256.24 47.7139 254.839 47.7207 253.355V253.246H45.5879V252.207H47.7207V250.799H48.9512V252.207H51.0566V253.246H48.9512V253.355ZM47.3652 259.836V258.783H55.6914V262.912H54.4062V259.836H47.3652ZM51.8223 258.113V250.881H53.0664V253.875H54.4609V250.676H55.6914V258.168H54.4609V254.941H53.0664V258.113H51.8223ZM67.5039 250.676V257.648H66.2051V250.676H67.5039ZM57.5918 254.189C57.5986 252.46 58.9795 251.284 60.8594 251.291C62.7324 251.284 64.1133 252.46 64.1133 254.189C64.1133 255.871 62.7324 257.061 60.8594 257.061C58.9795 257.061 57.5986 255.871 57.5918 254.189ZM58.8633 254.189C58.8564 255.242 59.6973 255.967 60.8594 255.967C62.0078 255.967 62.8418 255.242 62.8418 254.189C62.8418 253.103 62.0078 252.378 60.8594 252.385C59.6973 252.378 58.8564 253.103 58.8633 254.189ZM59.4512 262.762V258.264H67.5039V262.762H59.4512ZM60.7363 261.709H66.2324V259.303H60.7363V261.709ZM79.0703 250.662V253.547H80.8477V254.627H79.0703V257.58H77.7715V250.662H79.0703ZM69.3906 256.719C72.3232 255.946 74.0459 254.408 74.2852 252.494H69.9648V251.428H75.6934C75.6865 254.565 73.5605 256.773 69.9102 257.758L69.3906 256.719ZM71.2227 262.748V258.1H79.0703V262.748H71.2227ZM72.5215 261.709H77.7852V259.18H72.5215V261.709Z" fill="#F9FAFB"/>
<path d="M25.4941 109.259C25.4533 109.528 25.5433 109.799 25.735 109.991L27.0416 111.298C27.4333 111.689 27.63 112.204 27.63 112.718C27.63 113.232 27.4341 113.745 27.0416 114.138L25.6991 115.48C25.6089 115.57 25.4988 115.638 25.3777 115.678C25.2566 115.718 25.1278 115.729 25.0016 115.71C24.61 115.652 24.3333 115.31 24.195 114.939C24.0736 114.612 23.8718 114.32 23.6081 114.091C23.3444 113.861 23.0273 113.702 22.6859 113.627C22.3445 113.553 21.9899 113.565 21.6545 113.663C21.3192 113.762 21.0139 113.943 20.7668 114.19C20.5197 114.437 20.3388 114.742 20.2405 115.077C20.1422 115.413 20.1299 115.767 20.2045 116.109C20.2792 116.45 20.4385 116.767 20.6678 117.031C20.897 117.295 21.1889 117.496 21.5166 117.618C21.8883 117.756 22.2291 118.032 22.2875 118.424C22.3063 118.551 22.2953 118.679 22.2554 118.801C22.2154 118.922 22.1477 119.032 22.0575 119.122L20.7158 120.464C20.5295 120.651 20.308 120.799 20.0642 120.9C19.8203 121.001 19.5589 121.053 19.295 121.053C19.0312 121.053 18.7699 121.001 18.5262 120.9C18.2825 120.799 18.0612 120.651 17.875 120.464L16.5683 119.158C16.4739 119.063 16.3585 118.992 16.2316 118.95C16.1047 118.908 15.9697 118.896 15.8375 118.916C15.4266 118.978 15.1375 119.336 14.9875 119.723C14.8617 120.046 14.6575 120.332 14.3933 120.556C14.1291 120.78 13.8133 120.934 13.4743 121.005C13.1354 121.077 12.784 121.062 12.4521 120.963C12.1201 120.865 11.818 120.685 11.5731 120.44C11.3282 120.195 11.1482 119.893 11.0494 119.561C10.9507 119.229 10.9362 118.877 11.0074 118.538C11.0785 118.2 11.2331 117.884 11.457 117.619C11.681 117.355 11.9672 117.151 12.29 117.025C12.6766 116.875 13.035 116.586 13.0958 116.175C13.1156 116.043 13.1041 115.908 13.0622 115.781C13.0204 115.654 12.9494 115.539 12.855 115.444L11.5483 114.138C11.3615 113.952 11.2134 113.73 11.1124 113.487C11.0114 113.243 10.9596 112.982 10.96 112.718C10.96 112.204 11.1566 111.689 11.5483 111.298L12.82 110.026C13.02 109.826 13.3041 109.732 13.5841 109.774C14.0133 109.838 14.315 110.214 14.4783 110.615C14.608 110.933 14.8145 111.215 15.0791 111.434C15.3438 111.653 15.6586 111.803 15.9954 111.871C16.3321 111.939 16.6805 111.922 17.0094 111.823C17.3383 111.724 17.6376 111.545 17.8805 111.302C18.1234 111.059 18.3025 110.759 18.4018 110.431C18.5011 110.102 18.5175 109.753 18.4495 109.417C18.3816 109.08 18.2314 108.765 18.0124 108.5C17.7933 108.236 17.5123 108.029 17.1941 107.899C16.7925 107.736 16.4166 107.434 16.3525 107.005C16.3108 106.725 16.4041 106.442 16.605 106.241L17.8758 104.97C18.062 104.784 18.2832 104.636 18.5268 104.535C18.7703 104.434 19.0314 104.382 19.295 104.383C19.8091 104.383 20.3233 104.579 20.715 104.971L22.0216 106.278C22.2133 106.469 22.485 106.559 22.7525 106.519C23.1633 106.458 23.4525 106.099 23.6025 105.713C23.7282 105.39 23.9324 105.104 24.1966 104.88C24.4608 104.656 24.7767 104.501 25.1156 104.43C25.4546 104.359 25.8059 104.374 26.1379 104.472C26.4698 104.571 26.7719 104.751 27.0168 104.996C27.2617 105.241 27.4417 105.543 27.5405 105.875C27.6393 106.207 27.6537 106.558 27.5826 106.897C27.5114 107.236 27.3568 107.552 27.1329 107.816C26.909 108.08 26.6227 108.285 26.3 108.41C25.9133 108.56 25.555 108.849 25.4941 109.259Z" stroke="white" stroke-width="1.66667" stroke-linecap="round" stroke-linejoin="round"/>
<path d="M8.15039 129.807V130.846H1.25977V129.807H4.13086V128.521H5.41602V129.807H8.15039ZM1.94336 133.58C1.94336 132.261 3.0918 131.372 4.75977 131.365C6.40723 131.372 7.58301 132.261 7.58984 133.58C7.58301 134.913 6.40723 135.788 4.75977 135.795C3.0918 135.788 1.94336 134.913 1.94336 133.58ZM3.16016 133.58C3.15332 134.339 3.78906 134.824 4.75977 134.824C5.7168 134.824 6.37305 134.339 6.38672 133.58C6.37305 132.835 5.7168 132.356 4.75977 132.363C3.78906 132.356 3.15332 132.835 3.16016 133.58ZM3.39258 140.73V136.383H4.67773V137.545H10.1738V136.383H11.459V140.73H3.39258ZM4.67773 139.705H10.1738V138.543H4.67773V139.705ZM8.17773 134.865V133.812H10.1602V132.473H8.19141V131.406H10.1602V128.631H11.459V135.891H10.1602V134.865H8.17773ZM24.5293 134.592V135.631H13.3457V134.592H18.3086V133.293H14.7402V129.191H23.1484V130.217H16.0254V132.254H23.2305V133.293H19.5664V134.592H24.5293ZM14.6719 138.652C14.6719 137.23 16.2646 136.431 18.9238 136.424C21.5625 136.431 23.1416 137.23 23.1484 138.652C23.1416 140.074 21.5625 140.874 18.9238 140.881C16.2646 140.874 14.6719 140.074 14.6719 138.652ZM15.9844 138.652C15.9775 139.438 17.0508 139.869 18.9238 139.855C20.7695 139.869 21.8496 139.438 21.8496 138.652C21.8496 137.88 20.7695 137.436 18.9238 137.436C17.0508 137.436 15.9775 137.88 15.9844 138.652ZM35.6035 128.645V135.576H34.3047V128.645H35.6035ZM25.5 134.277C27.4141 133.635 28.5693 132.008 28.5762 130.299V129.109H29.9023V130.299C29.8955 131.953 31.0781 133.443 32.9375 134.072L32.2949 135.07C30.873 134.599 29.7998 133.635 29.2461 132.377C28.6992 133.724 27.6123 134.79 26.1426 135.303L25.5 134.277ZM27.5508 140.73V136.232H35.6035V140.73H27.5508ZM28.8359 139.678H34.332V137.271H28.8359V139.678Z" fill="#F9FAFB"/>
<defs>
<linearGradient id="paint0_linear_2145_28937" x1="130.258" y1="86.1875" x2="130.258" y2="226.271" gradientUnits="userSpaceOnUse">
<stop offset="0.005" stop-color="#A855F7"/>
<stop offset="1" stop-color="#6366F1"/>
</linearGradient>
</defs>
</svg>
