<svg width="838" height="355" viewBox="0 0 838 355" fill="none" xmlns="http://www.w3.org/2000/svg">
<path d="M140.701 43.9453L140.799 143.749" stroke="white" stroke-width="0.392927" stroke-linecap="square"/>
<path d="M45.5056 112.902L140.889 143.747" stroke="white" stroke-width="0.392927" stroke-linecap="square"/>
<path d="M236.334 112.824L140.892 143.749" stroke="white" stroke-width="0.392927" stroke-linecap="square"/>
<circle cx="140.788" cy="143.75" r="0.195708" fill="white"/>
<path d="M82.1465 224.696L140.791 143.852" stroke="white" stroke-width="0.392927" stroke-linecap="square"/>
<path d="M140.795 143.851L199.439 224.695" stroke="white" stroke-width="0.392927" stroke-linecap="square"/>
<path d="M46.6131 113.148L140.795 44.7214L234.977 113.148L199.003 223.866H82.5873L46.6131 113.148Z" stroke="white" stroke-width="1.57171"/>
<path d="M65.0487 119.138L140.794 64.1058L216.538 119.138L187.606 208.181H93.9807L65.0487 119.138Z" stroke="white" stroke-width="0.196464"/>
<path d="M96.4333 129.339L140.788 97.1136L185.142 129.339L168.2 181.481H113.375L96.4333 129.339Z" stroke="white" stroke-width="0.196464"/>
<path d="M117.364 136.135L140.792 119.114L164.219 136.135L155.27 163.675H126.313L117.364 136.135Z" stroke="white" stroke-width="0.196464"/>
<path d="M214.959 119.783L140.5 86.1875L59.5566 117.523L104.743 193.555L189.812 210.353L214.959 119.783Z" fill="url(#paint0_linear_2145_28935)" fill-opacity="0.4" stroke="#A855F7" stroke-width="1.17878" stroke-linecap="square"/>
<circle cx="140.695" cy="86.0875" r="2.25933" fill="#A855F7"/>
<circle cx="215.355" cy="120.076" r="2.25933" fill="#A855F7"/>
<circle cx="189.613" cy="210.255" r="2.25933" fill="#A855F7"/>
<circle cx="104.937" cy="193.158" r="2.25933" fill="#A855F7"/>
<circle cx="60.5386" cy="117.916" r="2.25933" fill="#A855F7"/>
<path d="M144.628 18.25V16.5833C144.628 15.6993 144.277 14.8514 143.652 14.2263C143.027 13.6012 142.179 13.25 141.295 13.25H136.295C135.411 13.25 134.563 13.6012 133.938 14.2263C133.313 14.8514 132.961 15.6993 132.961 16.5833V18.25" stroke="white" stroke-width="1.66667" stroke-linecap="round" stroke-linejoin="round"/>
<path d="M138.795 9.91667C140.636 9.91667 142.128 8.42428 142.128 6.58333C142.128 4.74238 140.636 3.25 138.795 3.25C136.954 3.25 135.461 4.74238 135.461 6.58333C135.461 8.42428 136.954 9.91667 138.795 9.91667Z" stroke="white" stroke-width="1.66667" stroke-linecap="round" stroke-linejoin="round"/>
<path d="M149.628 18.251V16.5844C149.628 15.8458 149.382 15.1284 148.93 14.5446C148.477 13.9609 147.844 13.544 147.128 13.3594" stroke="white" stroke-width="1.66667" stroke-linecap="round" stroke-linejoin="round"/>
<path d="M144.628 3.35938C145.345 3.54296 145.981 3.95996 146.435 4.54463C146.889 5.12931 147.135 5.8484 147.135 6.58854C147.135 7.32868 146.889 8.04777 146.435 8.63245C145.981 9.21712 145.345 9.63412 144.628 9.81771" stroke="white" stroke-width="1.66667" stroke-linecap="round" stroke-linejoin="round"/>
<path d="M109.238 27.5371C111.173 27.5303 112.567 28.7266 112.574 30.4492C112.567 32.1719 111.173 33.3682 109.238 33.375C107.311 33.3682 105.896 32.1719 105.902 30.4492C105.896 28.7266 107.311 27.5303 109.238 27.5371ZM105.314 35.2207C107.543 35.2207 110.633 35.2002 113.312 34.8105L113.408 35.7539C110.64 36.2871 107.666 36.3008 105.479 36.3008L105.314 35.2207ZM107.188 30.4492C107.174 31.5361 108.049 32.2402 109.238 32.2402C110.428 32.2402 111.303 31.5361 111.303 30.4492C111.303 29.376 110.428 28.6582 109.238 28.6582C108.049 28.6582 107.174 29.376 107.188 30.4492ZM114.078 38.9395V26.6621H115.377V38.9395H114.078ZM121.598 29.7793C121.584 31.9463 122.849 34.168 124.674 35.0566L123.867 36.0957C122.534 35.3984 121.502 34.0312 120.962 32.3975C120.415 34.1338 119.342 35.6035 117.947 36.3281L117.141 35.2754C119.021 34.373 120.292 32.0215 120.299 29.7793V27.6875H121.598V29.7793ZM125.59 38.9121V26.6621H126.889V31.543H128.857V32.6504H126.889V38.9121H125.59ZM140.656 36.2871V37.3535H129.445V36.2871H134.354V33.375H135.639V36.2871H140.656ZM129.828 32.5273C132.187 32.1309 134.292 30.3125 134.299 28.3711V27.4414H135.666V28.3711C135.666 30.3125 137.799 32.1309 140.164 32.5273L139.604 33.5938C137.614 33.2041 135.796 31.9736 134.989 30.2988C134.183 31.9668 132.378 33.2041 130.402 33.5938L129.828 32.5273ZM152.715 33.1016V34.127H141.518V33.1016H146.467V32.0352H142.98V26.9902H151.348V28.0156H144.293V29.0137H151.033V29.9844H144.293V31.0234H151.43V32.0352H147.766V33.1016H152.715ZM142.871 36.916C142.871 35.6309 144.396 34.9268 147.123 34.9336C149.81 34.9268 151.341 35.6309 151.348 36.916C151.341 38.208 149.81 38.8916 147.123 38.8848C144.396 38.8916 142.871 38.208 142.871 36.916ZM144.17 36.916C144.163 37.5791 145.188 37.9141 147.123 37.9004C149.03 37.9141 150.049 37.5791 150.049 36.916C150.049 36.2529 149.03 35.9043 147.123 35.9043C145.188 35.9043 144.163 36.2529 144.17 36.916ZM163.543 29.9707V31.0234H155.135V26.8809H156.42V29.9707H163.543ZM153.645 33.3887V32.3223H164.828V33.3887H153.645ZM154.971 36.6152C154.971 35.1865 156.563 34.3799 159.223 34.3867C161.861 34.3799 163.44 35.1865 163.447 36.6152C163.44 38.0508 161.861 38.8574 159.223 38.8574C156.563 38.8574 154.971 38.0508 154.971 36.6152ZM156.283 36.6152C156.276 37.4014 157.35 37.8525 159.223 37.8594C161.068 37.8525 162.148 37.4014 162.148 36.6152C162.148 35.8223 161.068 35.4053 159.223 35.3984C157.35 35.4053 156.276 35.8223 156.283 36.6152ZM171.582 27.4004V30.9688H167.535V32.6641C169.668 32.6641 170.83 32.6162 172.211 32.3633L172.334 33.416C170.837 33.6689 169.579 33.71 167.139 33.7168H166.25V29.9844H170.283V28.4395H166.236V27.4004H171.582ZM167.645 35.877V34.8242H175.957V38.9258H174.658V35.877H167.645ZM172.361 32.0488V31.0098H174.658V29.4922H172.361V28.4531H174.658V26.6758H175.957V34.209H174.658V32.0488H172.361Z" fill="#F9FAFB"/>
<path d="M264.328 105.752L263.261 104.686C263.168 104.591 263.056 104.516 262.933 104.464C262.81 104.413 262.678 104.387 262.545 104.387C262.411 104.387 262.279 104.413 262.156 104.464C262.033 104.516 261.922 104.591 261.828 104.686L248.261 118.252C248.167 118.346 248.091 118.458 248.04 118.581C247.989 118.704 247.962 118.836 247.962 118.969C247.962 119.102 247.989 119.234 248.04 119.357C248.091 119.48 248.167 119.592 248.261 119.686L249.328 120.752C249.421 120.848 249.533 120.924 249.656 120.976C249.779 121.028 249.911 121.055 250.045 121.055C250.178 121.055 250.311 121.028 250.434 120.976C250.557 120.924 250.668 120.848 250.761 120.752L264.328 107.186C264.424 107.093 264.5 106.981 264.552 106.858C264.604 106.735 264.631 106.603 264.631 106.469C264.631 106.335 264.604 106.203 264.552 106.08C264.5 105.957 264.424 105.846 264.328 105.752Z" stroke="white" stroke-width="1.66667" stroke-linecap="round" stroke-linejoin="round"/>
<path d="M257.961 108.551L260.461 111.051" stroke="white" stroke-width="1.66667" stroke-linecap="round" stroke-linejoin="round"/>
<path d="M250.461 107.719V111.052" stroke="white" stroke-width="1.66667" stroke-linecap="round" stroke-linejoin="round"/>
<path d="M262.128 114.387V117.72" stroke="white" stroke-width="1.66667" stroke-linecap="round" stroke-linejoin="round"/>
<path d="M254.628 104.387V106.053" stroke="white" stroke-width="1.66667" stroke-linecap="round" stroke-linejoin="round"/>
<path d="M252.128 109.387H248.795" stroke="white" stroke-width="1.66667" stroke-linecap="round" stroke-linejoin="round"/>
<path d="M263.795 116.051H260.461" stroke="white" stroke-width="1.66667" stroke-linecap="round" stroke-linejoin="round"/>
<path d="M255.462 105.219H253.795" stroke="white" stroke-width="1.66667" stroke-linecap="round" stroke-linejoin="round"/>
<path d="M242.635 130.805C242.628 132.35 243.735 133.86 245.588 134.496L244.918 135.508C243.544 135.036 242.525 134.052 241.992 132.842C241.459 134.188 240.386 135.269 238.93 135.781L238.26 134.756C240.14 134.113 241.315 132.479 241.309 130.818V130.477H238.656V129.424H245.26V130.477H242.635V130.805ZM240.16 137.627V136.574H248.459V140.881H247.16V137.627H240.16ZM244.891 132.814V131.748H247.16V128.631H248.459V135.959H247.16V132.814H244.891ZM260.135 129.205V130.053C260.142 130.976 260.142 132.145 259.848 133.73H261.557V134.797H250.346V133.73H258.535C258.829 132.24 258.85 131.14 258.85 130.258H251.754V129.205H260.135ZM251.535 137.518V136.492H260.203V140.908H258.904V137.518H251.535ZM266.793 130.463C266.786 132.179 267.9 133.71 269.76 134.318L269.049 135.33C267.702 134.838 266.711 133.895 266.178 132.664C265.651 134.065 264.585 135.166 263.102 135.699L262.404 134.66C264.359 133.99 265.494 132.356 265.508 130.518V129.314H266.793V130.463ZM264.414 138.543C264.407 137.06 265.979 136.198 268.557 136.205C271.12 136.198 272.692 137.06 272.699 138.543C272.692 140.02 271.12 140.86 268.557 140.854C265.979 140.86 264.407 140.02 264.414 138.543ZM265.699 138.543C265.692 139.356 266.759 139.835 268.557 139.828C270.341 139.835 271.407 139.356 271.414 138.543C271.407 137.702 270.341 137.217 268.557 137.217C266.759 137.217 265.692 137.702 265.699 138.543ZM268.775 132.186V131.119H271.359V128.631H272.658V135.863H271.359V132.186H268.775Z" fill="#F9FAFB"/>
<path d="M209.545 230C209.392 230.156 209.307 230.366 209.307 230.584C209.307 230.802 209.392 231.011 209.545 231.167L210.878 232.5C211.034 232.653 211.244 232.739 211.462 232.739C211.68 232.739 211.889 232.653 212.045 232.5L215.187 229.359C215.606 230.285 215.733 231.316 215.55 232.316C215.368 233.316 214.886 234.237 214.167 234.956C213.448 235.674 212.528 236.157 211.528 236.339C210.528 236.521 209.496 236.394 208.57 235.975L202.812 241.734C202.48 242.065 202.031 242.252 201.562 242.252C201.093 242.252 200.643 242.065 200.312 241.734C199.98 241.402 199.794 240.953 199.794 240.484C199.794 240.015 199.98 239.565 200.312 239.234L206.07 233.475C205.651 232.549 205.524 231.518 205.706 230.518C205.889 229.518 206.371 228.597 207.09 227.879C207.809 227.16 208.729 226.677 209.729 226.495C210.729 226.313 211.761 226.44 212.687 226.859L209.553 229.992L209.545 230Z" stroke="white" stroke-width="1.66667" stroke-linecap="round" stroke-linejoin="round"/>
<path d="M182.443 256.855V257.908H177.576V260.287H176.291V257.908H171.232V256.855H182.443ZM172.627 262.652V259.125H173.926V261.6H181.199V262.652H172.627ZM172.668 255.584V251.236H180.994V255.584H172.668ZM173.939 254.559H179.709V252.262H173.939V254.559ZM193.859 250.662V262.912H192.615V250.662H193.859ZM183.168 259.535C184.904 258.489 185.786 256.261 185.793 254.08V253.096H183.537V252.043H189.143V253.096H187.037V254.08C187.037 256.172 187.885 258.271 189.607 259.262L188.828 260.219C187.659 259.521 186.859 258.271 186.429 256.794C185.991 258.394 185.157 259.761 183.961 260.506L183.168 259.535ZM188.24 256.062V254.996H190.141V250.922H191.371V262.297H190.141V256.062H188.24ZM201.502 252.686V253.738H195.418V252.686H197.824V251.018H199.109V252.686H201.502ZM195.814 257.293C195.808 255.646 196.929 254.477 198.467 254.477C200.019 254.477 201.126 255.646 201.133 257.293C201.126 258.968 200.019 260.144 198.467 260.137C196.929 260.144 195.808 258.968 195.814 257.293ZM196.963 257.293C196.956 258.332 197.585 259.029 198.467 259.029C199.349 259.029 199.984 258.332 199.984 257.293C199.984 256.274 199.349 255.563 198.467 255.557C197.585 255.563 196.956 256.274 196.963 257.293ZM202.062 262.338V250.936H203.293V255.762H204.701V250.662H205.932V262.912H204.701V256.828H203.293V262.338H202.062ZM217.758 250.662V256.896H216.459V255.721H213.355V254.709H216.459V253.383H213.506C212.747 255.283 210.895 256.541 208.188 257.17L207.736 256.104C210.676 255.454 212.262 254.087 212.474 252.289H208.379V251.223H213.902C213.902 251.619 213.868 251.995 213.8 252.357H216.459V250.662H217.758ZM209.746 258.441V257.416H217.758V260.52H211.059V261.75H218.127V262.789H209.773V259.535H216.459V258.441H209.746ZM229.543 253.971V255.023H221.135V250.881H222.42V253.971H229.543ZM219.645 257.389V256.322H230.828V257.389H219.645ZM220.971 260.615C220.971 259.187 222.563 258.38 225.223 258.387C227.861 258.38 229.44 259.187 229.447 260.615C229.44 262.051 227.861 262.857 225.223 262.857C222.563 262.857 220.971 262.051 220.971 260.615ZM222.283 260.615C222.276 261.401 223.35 261.853 225.223 261.859C227.068 261.853 228.148 261.401 228.148 260.615C228.148 259.822 227.068 259.405 225.223 259.398C223.35 259.405 222.276 259.822 222.283 260.615ZM237.582 251.4V254.969H233.535V256.664C235.668 256.664 236.83 256.616 238.211 256.363L238.334 257.416C236.837 257.669 235.579 257.71 233.139 257.717H232.25V253.984H236.283V252.439H232.236V251.4H237.582ZM233.645 259.877V258.824H241.957V262.926H240.658V259.877H233.645ZM238.361 256.049V255.01H240.658V253.492H238.361V252.453H240.658V250.676H241.957V258.209H240.658V256.049H238.361Z" fill="#F9FAFB"/>
<path d="M63.6284 237.251C63.6284 237.251 64.4618 236.418 66.9618 236.418C69.4618 236.418 71.1284 238.085 73.6284 238.085C76.1284 238.085 76.9618 237.251 76.9618 237.251V227.251C76.9618 227.251 76.1284 228.085 73.6284 228.085C71.1284 228.085 69.4618 226.418 66.9618 226.418C64.4618 226.418 63.6284 227.251 63.6284 227.251V237.251Z" stroke="white" stroke-width="1.66667" stroke-linecap="round" stroke-linejoin="round"/>
<path d="M63.6284 243.083V237.25" stroke="white" stroke-width="1.66667" stroke-linecap="round" stroke-linejoin="round"/>
<path d="M55.9512 253.355C55.9512 254.736 56.8262 256.083 58.3848 256.637L57.7695 257.621C56.6143 257.177 55.8076 256.336 55.3701 255.311C54.9395 256.425 54.1191 257.341 52.9297 257.826L52.3145 256.869C53.8662 256.24 54.7139 254.839 54.7207 253.355V253.246H52.5879V252.207H54.7207V250.799H55.9512V252.207H58.0566V253.246H55.9512V253.355ZM54.3652 259.836V258.783H62.6914V262.912H61.4062V259.836H54.3652ZM58.8223 258.113V250.881H60.0664V253.875H61.4609V250.676H62.6914V258.168H61.4609V254.941H60.0664V258.113H58.8223ZM74.5039 250.676V257.648H73.2051V250.676H74.5039ZM64.5918 254.189C64.5986 252.46 65.9795 251.284 67.8594 251.291C69.7324 251.284 71.1133 252.46 71.1133 254.189C71.1133 255.871 69.7324 257.061 67.8594 257.061C65.9795 257.061 64.5986 255.871 64.5918 254.189ZM65.8633 254.189C65.8564 255.242 66.6973 255.967 67.8594 255.967C69.0078 255.967 69.8418 255.242 69.8418 254.189C69.8418 253.103 69.0078 252.378 67.8594 252.385C66.6973 252.378 65.8564 253.103 65.8633 254.189ZM66.4512 262.762V258.264H74.5039V262.762H66.4512ZM67.7363 261.709H73.2324V259.303H67.7363V261.709ZM86.0703 250.662V253.547H87.8477V254.627H86.0703V257.58H84.7715V250.662H86.0703ZM76.3906 256.719C79.3232 255.946 81.0459 254.408 81.2852 252.494H76.9648V251.428H82.6934C82.6865 254.565 80.5605 256.773 76.9102 257.758L76.3906 256.719ZM78.2227 262.748V258.1H86.0703V262.748H78.2227ZM79.5215 261.709H84.7852V259.18H79.5215V261.709Z" fill="#F9FAFB"/>
<path d="M32.4941 109.259C32.4533 109.528 32.5433 109.799 32.735 109.991L34.0416 111.298C34.4333 111.689 34.63 112.204 34.63 112.718C34.63 113.232 34.4341 113.745 34.0416 114.138L32.6991 115.48C32.6089 115.57 32.4988 115.638 32.3777 115.678C32.2566 115.718 32.1278 115.729 32.0016 115.71C31.61 115.652 31.3333 115.31 31.195 114.939C31.0736 114.612 30.8718 114.32 30.6081 114.091C30.3444 113.861 30.0273 113.702 29.6859 113.627C29.3445 113.553 28.9899 113.565 28.6545 113.663C28.3192 113.762 28.0139 113.943 27.7668 114.19C27.5197 114.437 27.3388 114.742 27.2405 115.077C27.1422 115.413 27.1299 115.767 27.2045 116.109C27.2792 116.45 27.4385 116.767 27.6678 117.031C27.897 117.295 28.1889 117.496 28.5166 117.618C28.8883 117.756 29.2291 118.032 29.2875 118.424C29.3063 118.551 29.2953 118.679 29.2554 118.801C29.2154 118.922 29.1477 119.032 29.0575 119.122L27.7158 120.464C27.5295 120.651 27.308 120.799 27.0642 120.9C26.8203 121.001 26.5589 121.053 26.295 121.053C26.0312 121.053 25.7699 121.001 25.5262 120.9C25.2825 120.799 25.0612 120.651 24.875 120.464L23.5683 119.158C23.4739 119.063 23.3585 118.992 23.2316 118.95C23.1047 118.908 22.9697 118.896 22.8375 118.916C22.4266 118.978 22.1375 119.336 21.9875 119.723C21.8617 120.046 21.6575 120.332 21.3933 120.556C21.1291 120.78 20.8133 120.934 20.4743 121.005C20.1354 121.077 19.784 121.062 19.4521 120.963C19.1201 120.865 18.818 120.685 18.5731 120.44C18.3282 120.195 18.1482 119.893 18.0494 119.561C17.9507 119.229 17.9362 118.877 18.0074 118.538C18.0785 118.2 18.2331 117.884 18.457 117.619C18.681 117.355 18.9672 117.151 19.29 117.025C19.6766 116.875 20.035 116.586 20.0958 116.175C20.1156 116.043 20.1041 115.908 20.0622 115.781C20.0204 115.654 19.9494 115.539 19.855 115.444L18.5483 114.138C18.3615 113.952 18.2134 113.73 18.1124 113.487C18.0114 113.243 17.9596 112.982 17.96 112.718C17.96 112.204 18.1566 111.689 18.5483 111.298L19.82 110.026C20.02 109.826 20.3041 109.732 20.5841 109.774C21.0133 109.838 21.315 110.214 21.4783 110.615C21.608 110.933 21.8145 111.215 22.0791 111.434C22.3438 111.653 22.6586 111.803 22.9954 111.871C23.3321 111.939 23.6805 111.922 24.0094 111.823C24.3383 111.724 24.6376 111.545 24.8805 111.302C25.1234 111.059 25.3025 110.759 25.4018 110.431C25.5011 110.102 25.5175 109.753 25.4495 109.417C25.3816 109.08 25.2314 108.765 25.0124 108.5C24.7933 108.236 24.5123 108.029 24.1941 107.899C23.7925 107.736 23.4166 107.434 23.3525 107.005C23.3108 106.725 23.4041 106.442 23.605 106.241L24.8758 104.97C25.062 104.784 25.2832 104.636 25.5268 104.535C25.7703 104.434 26.0314 104.382 26.295 104.383C26.8091 104.383 27.3233 104.579 27.715 104.971L29.0216 106.278C29.2133 106.469 29.485 106.559 29.7525 106.519C30.1633 106.458 30.4525 106.099 30.6025 105.713C30.7282 105.39 30.9324 105.104 31.1966 104.88C31.4608 104.656 31.7767 104.501 32.1156 104.43C32.4546 104.359 32.8059 104.374 33.1379 104.472C33.4698 104.571 33.7719 104.751 34.0168 104.996C34.2617 105.241 34.4417 105.543 34.5405 105.875C34.6393 106.207 34.6537 106.558 34.5826 106.897C34.5114 107.236 34.3568 107.552 34.1329 107.816C33.909 108.08 33.6227 108.285 33.3 108.41C32.9133 108.56 32.555 108.849 32.4941 109.259Z" stroke="white" stroke-width="1.66667" stroke-linecap="round" stroke-linejoin="round"/>
<path d="M15.1504 129.807V130.846H8.25977V129.807H11.1309V128.521H12.416V129.807H15.1504ZM8.94336 133.58C8.94336 132.261 10.0918 131.372 11.7598 131.365C13.4072 131.372 14.583 132.261 14.5898 133.58C14.583 134.913 13.4072 135.788 11.7598 135.795C10.0918 135.788 8.94336 134.913 8.94336 133.58ZM10.1602 133.58C10.1533 134.339 10.7891 134.824 11.7598 134.824C12.7168 134.824 13.373 134.339 13.3867 133.58C13.373 132.835 12.7168 132.356 11.7598 132.363C10.7891 132.356 10.1533 132.835 10.1602 133.58ZM10.3926 140.73V136.383H11.6777V137.545H17.1738V136.383H18.459V140.73H10.3926ZM11.6777 139.705H17.1738V138.543H11.6777V139.705ZM15.1777 134.865V133.812H17.1602V132.473H15.1914V131.406H17.1602V128.631H18.459V135.891H17.1602V134.865H15.1777ZM31.5293 134.592V135.631H20.3457V134.592H25.3086V133.293H21.7402V129.191H30.1484V130.217H23.0254V132.254H30.2305V133.293H26.5664V134.592H31.5293ZM21.6719 138.652C21.6719 137.23 23.2646 136.431 25.9238 136.424C28.5625 136.431 30.1416 137.23 30.1484 138.652C30.1416 140.074 28.5625 140.874 25.9238 140.881C23.2646 140.874 21.6719 140.074 21.6719 138.652ZM22.9844 138.652C22.9775 139.438 24.0508 139.869 25.9238 139.855C27.7695 139.869 28.8496 139.438 28.8496 138.652C28.8496 137.88 27.7695 137.436 25.9238 137.436C24.0508 137.436 22.9775 137.88 22.9844 138.652ZM42.6035 128.645V135.576H41.3047V128.645H42.6035ZM32.5 134.277C34.4141 133.635 35.5693 132.008 35.5762 130.299V129.109H36.9023V130.299C36.8955 131.953 38.0781 133.443 39.9375 134.072L39.2949 135.07C37.873 134.599 36.7998 133.635 36.2461 132.377C35.6992 133.724 34.6123 134.79 33.1426 135.303L32.5 134.277ZM34.5508 140.73V136.232H42.6035V140.73H34.5508ZM35.8359 139.678H41.332V137.271H35.8359V139.678Z" fill="#F9FAFB"/>
<path d="M29.2402 348.984C25.8535 348.984 23.3574 346.957 23.2637 344.156H26.2402C26.334 345.527 27.6348 346.512 29.2402 346.523C31.1387 346.512 32.5098 345.141 32.498 343.266C32.5098 341.32 31.1035 339.949 29.1465 339.938C27.8223 339.926 26.8613 340.395 26.334 341.391H23.498L24.5293 331.781H34.5605V334.336H27.0371L26.5215 338.836H26.6855C27.3418 338.098 28.5723 337.559 29.9668 337.547C33.1191 337.559 35.4629 339.902 35.4512 343.172C35.4629 346.559 32.9082 348.984 29.2402 348.984ZM53.9199 329.648V337.922H57.0605V340.102H53.9199V350.789H51.3184V329.648H53.9199ZM37.209 345C42.3652 342.422 45.1543 338.836 45.6699 334.008H38.3574V331.852H48.3184C48.3066 338.074 45.7285 343.547 38.6855 347.016L37.209 345ZM66.0605 335.672C66.0605 339.141 68.0996 342.797 71.5215 344.227L70.0918 346.289C67.584 345.199 65.7559 342.984 64.7832 340.289C63.8105 343.195 61.9473 345.633 59.4746 346.805L57.9746 344.766C61.3145 343.219 63.4004 339.27 63.4121 335.672V333.891H58.748V331.734H70.7012V333.891H66.0605V335.672ZM73.0684 350.836V329.648H75.6934V350.836H73.0684ZM94.6074 336.445C94.4551 334.98 93.2246 334.137 91.3965 334.148C89.4629 334.137 88.3145 335.074 88.3027 336.352C88.291 337.781 89.8027 338.367 91.209 338.695L92.8027 339.117C95.334 339.703 97.7715 341.039 97.7715 343.992C97.7715 346.969 95.416 349.008 91.3496 349.008C87.4004 349.008 84.8926 347.109 84.7637 343.758H87.7637C87.9043 345.527 89.3926 346.395 91.3262 346.406C93.3301 346.395 94.7129 345.422 94.7246 343.969C94.7129 342.633 93.4941 342.07 91.6543 341.602L89.7324 341.109C86.9434 340.383 85.209 338.977 85.209 336.539C85.209 333.539 87.8691 331.547 91.4434 331.547C95.041 331.547 97.4902 333.574 97.5371 336.445H94.6074ZM115.443 340.266C115.455 345.75 112.104 348.984 107.662 348.984C103.197 348.984 99.8691 345.738 99.8809 340.266C99.8691 334.781 103.197 331.547 107.662 331.547C112.104 331.547 115.455 334.781 115.443 340.266ZM102.951 340.266C102.939 344.145 104.896 346.242 107.662 346.242C110.439 346.242 112.385 344.145 112.373 340.266C112.385 336.387 110.439 334.289 107.662 334.289C104.896 334.289 102.939 336.387 102.951 340.266ZM118.162 348.75V331.781H129.037V334.336H121.209V338.977H128.287V341.531H121.209V348.75H118.162ZM130.865 334.336V331.781H144.389V334.336H139.162V348.75H136.115V334.336H130.865ZM161.709 336.445C161.557 334.98 160.326 334.137 158.498 334.148C156.564 334.137 155.416 335.074 155.404 336.352C155.393 337.781 156.904 338.367 158.311 338.695L159.904 339.117C162.436 339.703 164.873 341.039 164.873 343.992C164.873 346.969 162.518 349.008 158.451 349.008C154.502 349.008 151.994 347.109 151.865 343.758H154.865C155.006 345.527 156.494 346.395 158.428 346.406C160.432 346.395 161.814 345.422 161.826 343.969C161.814 342.633 160.596 342.07 158.756 341.602L156.834 341.109C154.045 340.383 152.311 338.977 152.311 336.539C152.311 333.539 154.971 331.547 158.545 331.547C162.143 331.547 164.592 333.574 164.639 336.445H161.709ZM167.404 348.75V331.781H170.451V339.586H170.686L177.318 331.781H181.045L174.482 339.398L181.115 348.75H177.436L172.35 341.461L170.451 343.688V348.75H167.404ZM186.037 331.781V348.75H182.99V331.781H186.037ZM189.201 348.75V331.781H192.248V346.172H199.748V348.75H189.201ZM202.186 348.75V331.781H205.232V346.172H212.732V348.75H202.186ZM239.311 340.219V342.305H219.998V340.219H239.311ZM220.912 337.312C225.354 337.008 227.85 335.531 228.143 333.727H221.896V331.688H228.342V329.695H230.92V331.688H237.412V333.727H231.107C231.389 335.531 233.885 337.008 238.35 337.312L237.529 339.305C233.744 338.988 230.943 337.816 229.631 335.977C228.295 337.816 225.494 338.988 221.732 339.305L220.912 337.312ZM222.131 346.195V344.133H236.943V350.836H234.342V346.195H222.131ZM258.482 329.648V342.234H255.881V337.055H252.271V334.922H255.881V329.648H258.482ZM240.67 340.125C244.08 338.953 245.873 336.105 245.873 333.305V333.141H241.467V331.031H252.904V333.141H248.521V333.281C248.521 335.859 250.232 338.461 253.514 339.562L252.201 341.625C249.846 340.828 248.182 339.211 247.244 337.219C246.318 339.469 244.549 341.297 242.029 342.188L240.67 340.125ZM244.115 346.805C244.092 344.262 246.846 342.773 251.311 342.773C255.799 342.773 258.541 344.262 258.553 346.805C258.541 349.348 255.799 350.824 251.311 350.836C246.846 350.824 244.092 349.348 244.115 346.805ZM246.693 346.805C246.682 348.117 248.369 348.832 251.311 348.82C254.275 348.832 255.951 348.117 255.951 346.805C255.951 345.48 254.275 344.766 251.311 344.766C248.369 344.766 246.682 345.48 246.693 346.805Z" fill="white"/>
<rect x="542.5" y="95.75" width="52" height="33" rx="15" fill="white" fill-opacity="0.8"/>
<path d="M555.189 105.953V109.715H558.195V105.953H559.742V116.359H553.607V105.953H555.189ZM555.189 115.006H558.195V111.033H555.189V115.006ZM561.5 119.471V104.793H563.082V110.664H565.033V104.494H566.633V120.244H565.033V112.035H563.082V119.471H561.5ZM581.75 104.494V120.279H580.098V113.688H577.021V112.299H580.098V109.381H577.109V108.01H580.098V104.494H581.75ZM569.182 107.236V105.883H576.16V111.631H570.887V115.252C573.11 115.243 574.991 115.138 577.232 114.812L577.373 116.184C574.912 116.57 572.899 116.641 570.412 116.641H569.217V110.312H574.525V107.236H569.182Z" fill="#4B5563"/>
<rect x="600.5" y="95.75" width="83" height="33" rx="15" fill="white" fill-opacity="0.8"/>
<path d="M623.842 111.754V113.09H619.078V116.939H625.494V118.311H611.08V116.939H617.426V113.09H612.873V105.707H623.701V107.061H614.543V111.754H623.842ZM639.768 104.512V116.043H638.098V110.119H635.092V108.766H638.098V104.512H639.768ZM626.654 112.756C629.071 111.938 630.583 109.864 630.574 107.693V107.078H627.164V105.707H635.654V107.078H632.279V107.693C632.271 109.653 633.694 111.631 636.076 112.422L635.215 113.758C633.448 113.143 632.139 111.877 631.453 110.312C630.768 112.053 629.388 113.441 627.516 114.109L626.654 112.756ZM629.537 119.91V115.006H631.207V118.557H640.189V119.91H629.537ZM655.324 104.494V113.863H653.654V109.873H650.719V108.502H653.654V104.494H655.324ZM642.193 112.439C644.637 111.587 646.14 109.46 646.131 107.289V106.938H642.721V105.584H651.211V106.938H647.836V107.271C647.827 109.267 649.251 111.209 651.633 112.018L650.771 113.336C649.005 112.729 647.704 111.464 647.019 109.908C646.333 111.666 644.953 113.081 643.072 113.775L642.193 112.439ZM644.725 117.273C644.716 115.401 646.737 114.312 650.051 114.303C653.347 114.312 655.368 115.401 655.377 117.273C655.368 119.146 653.347 120.235 650.051 120.244C646.737 120.235 644.716 119.146 644.725 117.273ZM646.377 117.273C646.368 118.337 647.739 118.943 650.051 118.926C652.345 118.943 653.716 118.337 653.725 117.273C653.716 116.201 652.345 115.595 650.051 115.604C647.739 115.595 646.368 116.201 646.377 117.273ZM670.811 104.512V116.043H669.141V104.512H670.811ZM657.838 112.492C660.308 111.578 661.767 109.311 661.775 106.938V105.373H663.48V106.938C663.472 109.24 664.931 111.35 667.365 112.193L666.504 113.529C664.685 112.853 663.34 111.517 662.637 109.812C661.942 111.64 660.58 113.099 658.734 113.811L657.838 112.492ZM660.51 119.91V114.953H662.197V118.557H671.285V119.91H660.51Z" fill="#4B5563"/>
<rect x="689.5" y="95.75" width="67" height="33" rx="15" fill="white" fill-opacity="0.8"/>
<path d="M704.844 107.957C704.844 109.732 705.969 111.464 707.973 112.176L707.182 113.441C705.696 112.87 704.659 111.789 704.097 110.471C703.543 111.903 702.488 113.081 700.959 113.705L700.168 112.475C702.163 111.666 703.253 109.864 703.262 107.957V107.816H700.52V106.48H703.262V104.67H704.844V106.48H707.551V107.816H704.844V107.957ZM702.805 116.289V114.936H713.51V120.244H711.857V116.289H702.805ZM708.535 114.074V104.775H710.135V108.625H711.928V104.512H713.51V114.145H711.928V109.996H710.135V114.074H708.535ZM728.697 104.512V113.477H727.027V104.512H728.697ZM715.953 109.029C715.962 106.806 717.737 105.294 720.154 105.303C722.562 105.294 724.338 106.806 724.338 109.029C724.338 111.191 722.562 112.721 720.154 112.721C717.737 112.721 715.962 111.191 715.953 109.029ZM717.588 109.029C717.579 110.383 718.66 111.314 720.154 111.314C721.631 111.314 722.703 110.383 722.703 109.029C722.703 107.632 721.631 106.7 720.154 106.709C718.66 106.7 717.579 107.632 717.588 109.029ZM718.344 120.051V114.268H728.697V120.051H718.344ZM719.996 118.697H727.062V115.604H719.996V118.697ZM743.568 104.494V108.203H745.854V109.592H743.568V113.389H741.898V104.494H743.568ZM731.123 112.281C734.894 111.288 737.108 109.311 737.416 106.85H731.861V105.479H739.227C739.218 109.513 736.484 112.352 731.791 113.617L731.123 112.281ZM733.479 120.033V114.057H743.568V120.033H733.479ZM735.148 118.697H741.916V115.445H735.148V118.697Z" fill="#4B5563"/>
<path d="M477.867 163.234V164.25H472.211V167.094H470.992V164.25H465.148V163.234H477.867ZM466.773 169.719V165.719H468.008V168.688H476.445V169.719H466.773ZM466.805 161.641V156.812H476.211V161.641H466.805ZM468.008 160.656H474.992V157.781H468.008V160.656ZM490.867 156.125V170.016H489.695V156.125H490.867ZM478.82 166.312C480.758 165.156 481.891 162.617 481.883 160.094V158.781H479.211V157.766H485.617V158.781H483.07V160.094C483.07 162.492 484.156 164.891 486.07 166L485.32 166.906C483.953 166.086 482.984 164.586 482.5 162.82C482 164.734 480.992 166.367 479.602 167.234L478.82 166.312ZM484.555 162.141V161.141H486.898V156.469H488.055V169.297H486.898V162.141H484.555ZM504.336 156.125V164.266H503.102V160.641H500.289V159.609H503.102V156.125H504.336ZM492.883 163.156C494.93 162.43 496.414 160.57 496.414 158.594V158.047H493.273V157.031H500.758V158.047H497.648V158.594C497.648 160.383 499.039 162.117 501.07 162.844L500.43 163.812C498.867 163.242 497.656 162.078 497.055 160.641C496.453 162.25 495.172 163.523 493.523 164.125L492.883 163.156ZM495.258 169.828V164.953H504.336V169.828H495.258ZM496.477 168.828H503.133V165.938H496.477V168.828ZM512.977 156.375C516.062 156.375 517.875 157.227 517.883 158.766C517.875 160.344 516.062 161.195 512.977 161.203C509.875 161.195 508.055 160.344 508.055 158.766C508.055 157.227 509.875 156.375 512.977 156.375ZM506.648 163.141V162.141H519.305V163.141H506.648ZM508.18 165.281V164.344H517.68V167.453H509.43V168.891H518.102V169.859H508.211V166.547H516.477V165.281H508.18ZM509.336 158.766C509.32 159.734 510.672 160.266 512.977 160.266C515.281 160.266 516.625 159.734 516.633 158.766C516.625 157.852 515.281 157.305 512.977 157.297C510.672 157.305 509.32 157.852 509.336 158.766ZM535.242 156.125V161.594H537.57V162.656H535.242V170.016H534.023V156.125H535.242ZM525.07 166.688V157.312H526.289V160.984H530.352V157.312H531.57V166.688H525.07ZM526.289 165.656H530.352V161.969H526.289V165.656ZM551.039 167.266V168.297H538.32V167.266H544.039V164.641H539.914V160.359H548.227V158.172H539.883V157.156H549.43V161.359H541.133V163.625H549.758V164.641H545.242V167.266H551.039ZM564.148 157.641V158.656H562.602V165.344C563.352 165.297 564.094 165.227 564.805 165.141L564.867 166.047C561.93 166.516 558.609 166.562 556.148 166.578L555.992 165.531C556.578 165.531 557.203 165.523 557.867 165.516V158.656H556.336V157.641H564.148ZM559.055 165.5C559.828 165.484 560.633 165.453 561.43 165.414V158.656H559.055V165.5ZM565.695 170.016V156.125H566.914V161.703H569.242V162.734H566.914V170.016H565.695ZM573.898 156.969C576.016 156.961 577.539 158.305 577.555 160.234C577.539 162.188 576.016 163.523 573.898 163.531C571.797 163.523 570.25 162.188 570.258 160.234C570.25 158.305 571.797 156.961 573.898 156.969ZM571.461 160.234C571.453 161.57 572.492 162.484 573.898 162.469C575.32 162.484 576.344 161.57 576.352 160.234C576.344 158.93 575.32 158.023 573.898 158.016C572.492 158.023 571.453 158.93 571.461 160.234ZM571.758 166.031V165.031H580.852V170.047H579.633V166.031H571.758ZM579.633 164.312V156.125H580.852V159.719H582.945V160.75H580.852V164.312H579.633ZM594.57 156.125V161.859H596.898V162.875H594.57V170.016H593.352V156.125H594.57ZM583.742 159.375V158.359H587.32V156.297H588.539V158.359H592.008V159.375H583.742ZM584.539 163.719C584.531 161.844 585.969 160.531 587.945 160.531C589.906 160.531 591.336 161.844 591.352 163.719C591.336 165.602 589.906 166.906 587.945 166.906C585.969 166.906 584.531 165.602 584.539 163.719ZM585.711 163.719C585.703 164.984 586.648 165.875 587.945 165.859C589.227 165.875 590.164 164.984 590.18 163.719C590.164 162.461 589.227 161.555 587.945 161.562C586.648 161.555 585.703 162.461 585.711 163.719ZM608.789 157.531V158.922C608.773 160.625 608.773 162.531 608.273 165.328L607.023 165.188C607.547 162.531 607.547 160.586 607.555 158.922V158.547H598.992V157.531H608.789ZM597.648 168.047V167.031H602.617V162.062H603.82V167.031H610.305V168.047H597.648ZM622.43 158.531V159.531H615.461V158.531H618.352V156.547H619.57V158.531H622.43ZM615.961 163.625C615.961 161.781 617.219 160.477 618.945 160.469C620.695 160.477 621.945 161.781 621.961 163.625C621.945 165.492 620.695 166.805 618.945 166.812C617.219 166.805 615.961 165.492 615.961 163.625ZM617.055 163.625C617.055 164.859 617.844 165.742 618.945 165.734C620.055 165.742 620.867 164.859 620.867 163.625C620.867 162.406 620.055 161.516 618.945 161.5C617.844 161.516 617.055 162.406 617.055 163.625ZM623.148 169.328V156.469H624.305V161.984H626.148V156.125H627.32V170.016H626.148V163H624.305V169.328H623.148ZM640.836 156.125V163.234H639.602V161.781H635.898V160.812H639.602V159.141H636.102C635.234 161.328 633.078 162.805 629.992 163.547L629.555 162.531C632.961 161.742 634.938 160.086 635.172 157.844H630.258V156.828H636.523C636.523 157.289 636.477 157.734 636.391 158.156H639.602V156.125H640.836ZM631.836 164.859V163.859H640.836V167.25H633.086V168.875H641.305V169.891H631.867V166.312H639.602V164.859H631.836ZM647.258 159.141C647.258 160.781 648.352 162.383 650.117 163.031L649.523 163.984C648.172 163.445 647.203 162.406 646.711 161.156C646.227 162.516 645.25 163.641 643.867 164.234L643.258 163.312C645.031 162.586 646.086 160.906 646.102 159.141V158.969H643.539V157.969H646.102V156.297H647.258V157.969H649.773V158.969H647.258V159.141ZM645.586 166.391V165.391H654.945V170.016H653.742V166.391H645.586ZM650.773 164.578V156.391H651.961V159.859H653.773V156.141H654.945V164.641H653.773V160.875H651.961V164.578H650.773ZM663.305 156.375C666.391 156.375 668.203 157.227 668.211 158.766C668.203 160.344 666.391 161.195 663.305 161.203C660.203 161.195 658.383 160.344 658.383 158.766C658.383 157.227 660.203 156.375 663.305 156.375ZM656.977 163.141V162.141H669.633V163.141H656.977ZM658.508 165.281V164.344H668.008V167.453H659.758V168.891H668.43V169.859H658.539V166.547H666.805V165.281H658.508ZM659.664 158.766C659.648 159.734 661 160.266 663.305 160.266C665.609 160.266 666.953 159.734 666.961 158.766C666.953 157.852 665.609 157.305 663.305 157.297C661 157.305 659.648 157.852 659.664 158.766ZM678.961 158.891C678.969 160.43 680.039 161.984 681.82 162.656L681.18 163.594C679.844 163.078 678.883 162.086 678.383 160.891C677.875 162.211 676.875 163.391 675.508 163.984L674.836 163.031C676.664 162.234 677.781 160.438 677.789 158.891V157H678.961V158.891ZM677.367 167.516C677.352 165.945 679.133 165.023 682.023 165.031C684.898 165.023 686.688 165.945 686.695 167.516C686.688 169.07 684.898 169.984 682.023 169.984C679.133 169.984 677.352 169.07 677.367 167.516ZM678.586 167.516C678.57 168.461 679.891 169.039 682.023 169.031C684.133 169.039 685.461 168.461 685.477 167.516C685.461 166.555 684.133 165.977 682.023 165.969C679.891 165.977 678.57 166.555 678.586 167.516ZM682.445 164.281V156.406H683.602V159.875H685.445V156.141H686.617V164.719H685.445V160.891H683.602V164.281H682.445ZM699.508 156.125V159.656H701.602V160.703H699.508V164.281H698.289V156.125H699.508ZM688.633 163.172C692.039 162.25 694.141 160.391 694.391 158.031H689.258V157.016H695.695C695.688 160.531 693.234 163.039 689.133 164.125L688.633 163.172ZM690.414 165.922V164.922H699.508V170.016H698.289V165.922H690.414ZM713.227 156.125V161.859H715.555V162.875H713.227V170.016H712.008V156.125H713.227ZM702.398 159.375V158.359H705.977V156.297H707.195V158.359H710.664V159.375H702.398ZM703.195 163.719C703.188 161.844 704.625 160.531 706.602 160.531C708.562 160.531 709.992 161.844 710.008 163.719C709.992 165.602 708.562 166.906 706.602 166.906C704.625 166.906 703.188 165.602 703.195 163.719ZM704.367 163.719C704.359 164.984 705.305 165.875 706.602 165.859C707.883 165.875 708.82 164.984 708.836 163.719C708.82 162.461 707.883 161.555 706.602 161.562C705.305 161.555 704.359 162.461 704.367 163.719ZM727.539 160.344V161.328H718.023V156.641H719.242V160.344H727.539ZM716.289 164.219V163.219H729.008V164.219H716.289ZM717.945 169.672V165.641H719.164V168.656H727.617V169.672H717.945ZM746.852 163.234V164.25H741.195V167.094H739.977V164.25H734.133V163.234H746.852ZM735.758 169.719V165.719H736.992V168.688H745.43V169.719H735.758ZM735.789 161.641V156.812H745.195V161.641H735.789ZM736.992 160.656H743.977V157.781H736.992V160.656ZM759.852 156.125V170.016H758.68V156.125H759.852ZM747.805 166.312C749.742 165.156 750.875 162.617 750.867 160.094V158.781H748.195V157.766H754.602V158.781H752.055V160.094C752.055 162.492 753.141 164.891 755.055 166L754.305 166.906C752.938 166.086 751.969 164.586 751.484 162.82C750.984 164.734 749.977 166.367 748.586 167.234L747.805 166.312ZM753.539 162.141V161.141H755.883V156.469H757.039V169.297H755.883V162.141H753.539ZM768.742 158.531V159.531H761.773V158.531H764.664V156.547H765.883V158.531H768.742ZM762.273 163.625C762.273 161.781 763.531 160.477 765.258 160.469C767.008 160.477 768.258 161.781 768.273 163.625C768.258 165.492 767.008 166.805 765.258 166.812C763.531 166.805 762.273 165.492 762.273 163.625ZM763.367 163.625C763.367 164.859 764.156 165.742 765.258 165.734C766.367 165.742 767.18 164.859 767.18 163.625C767.18 162.406 766.367 161.516 765.258 161.5C764.156 161.516 763.367 162.406 763.367 163.625ZM769.461 169.328V156.469H770.617V161.984H772.461V156.125H773.633V170.016H772.461V163H770.617V169.328H769.461ZM787.148 156.125V163.234H785.914V161.781H782.211V160.812H785.914V159.141H782.414C781.547 161.328 779.391 162.805 776.305 163.547L775.867 162.531C779.273 161.742 781.25 160.086 781.484 157.844H776.57V156.828H782.836C782.836 157.289 782.789 157.734 782.703 158.156H785.914V156.125H787.148ZM778.148 164.859V163.859H787.148V167.25H779.398V168.875H787.617V169.891H778.18V166.312H785.914V164.859H778.148ZM804.695 160.016V161.031H795.211V156.406H796.43V160.016H804.695ZM793.477 163.672V162.656H806.148V163.672H793.477ZM795.008 167.438C795 165.82 796.805 164.914 799.805 164.922C802.781 164.914 804.57 165.82 804.586 167.438C804.57 169.047 802.781 169.953 799.805 169.953C796.805 169.953 795 169.047 795.008 167.438ZM796.258 167.438C796.242 168.406 797.578 168.992 799.805 169C802.008 168.992 803.344 168.406 803.352 167.438C803.344 166.453 802.008 165.898 799.805 165.891C797.578 165.898 796.242 166.453 796.258 167.438ZM813.898 156.984V160.875H809.117V163.031C811.727 163.039 813.078 162.984 814.711 162.688L814.836 163.703C813.109 163.984 811.695 164.031 808.883 164.031H807.898V159.938H812.68V157.969H807.867V156.984H813.898ZM809.461 166.422V165.422H818.82V170.047H817.586V166.422H809.461ZM814.82 162.094V161.078H817.586V159.203H814.82V158.203H817.586V156.141H818.82V164.672H817.586V162.094H814.82ZM832.586 156.125V170.047H831.352V156.125H832.586ZM821.648 162.047C821.656 159.094 823.125 157.211 825.195 157.203C827.258 157.211 828.75 159.094 828.742 162.047C828.75 165.008 827.258 166.883 825.195 166.875C823.125 166.883 821.656 165.008 821.648 162.047ZM822.836 162.047C822.836 164.305 823.805 165.789 825.195 165.781C826.594 165.789 827.555 164.305 827.555 162.047C827.555 159.789 826.594 158.305 825.195 158.297C823.805 158.305 822.836 159.789 822.836 162.047ZM495.828 175.875V177.047C495.828 178.383 495.828 179.875 495.445 181.969H497.484V182.984H484.781V181.969H494.203C494.383 181.078 494.484 180.289 494.539 179.57L486.219 179.953L486.062 178.906L494.594 178.648C494.617 178.078 494.609 177.547 494.609 177.047V176.891H486.391V175.875H495.828ZM486.391 188.719V184.375H487.625V187.688H496.125V188.719H486.391ZM507.328 177.766C507.336 179.586 508.695 181.211 510.734 181.875L510.156 182.844C508.555 182.312 507.344 181.211 506.742 179.812C506.148 181.406 504.867 182.648 503.203 183.25L502.578 182.266C504.656 181.562 506.109 179.773 506.125 177.766V177.172H502.953V176.156H510.453V177.172H507.328V177.766ZM504.422 186.422C504.43 184.82 506.172 183.891 509.031 183.891C511.883 183.891 513.609 184.82 513.609 186.422C513.609 188.047 511.883 188.984 509.031 188.984C506.172 188.984 504.43 188.047 504.422 186.422ZM505.656 186.422C505.641 187.422 506.938 188.008 509.031 188C511.133 188.008 512.414 187.422 512.422 186.422C512.414 185.453 511.133 184.875 509.031 184.875C506.938 184.875 505.641 185.453 505.656 186.422ZM512.266 183.516V175.125H513.484V178.672H515.578V179.703H513.484V183.516H512.266ZM527.969 175.125V183.266H526.734V179.641H523.922V178.609H526.734V175.125H527.969ZM516.516 182.156C518.562 181.43 520.047 179.57 520.047 177.594V177.047H516.906V176.031H524.391V177.047H521.281V177.594C521.281 179.383 522.672 181.117 524.703 181.844L524.062 182.812C522.5 182.242 521.289 181.078 520.688 179.641C520.086 181.25 518.805 182.523 517.156 183.125L516.516 182.156ZM518.891 188.828V183.953H527.969V188.828H518.891ZM520.109 187.828H526.766V184.938H520.109V187.828ZM541.75 175.141V185.297H540.531V175.141H541.75ZM530.609 179.516C530.602 177.516 532.172 176.117 534.25 176.109C536.328 176.117 537.883 177.516 537.891 179.516C537.883 181.539 536.328 182.945 534.25 182.938C532.172 182.945 530.602 181.539 530.609 179.516ZM531.812 179.516C531.797 180.898 532.844 181.859 534.25 181.859C535.633 181.859 536.688 180.898 536.688 179.516C536.688 178.156 535.633 177.188 534.25 177.188C532.844 177.188 531.797 178.156 531.812 179.516ZM532.781 188.719V184.266H534V187.688H542.188V188.719H532.781ZM552.781 178.859C552.781 181.305 554.398 183.828 556.375 184.797L555.625 185.781C554.094 184.984 552.812 183.336 552.195 181.406C551.578 183.453 550.266 185.211 548.703 186.047L547.922 185.062C549.953 184.062 551.562 181.398 551.578 178.859V176.328H552.781V178.859ZM557.656 189.016V175.125H558.875V180.766H561.203V181.828H558.875V189.016H557.656ZM572.812 175.141V178.703H574.922V179.75H572.812V183.422H571.594V175.141H572.812ZM562.547 176.906V175.891H568.844V179.688H563.781V181.656C566.25 181.664 568.039 181.586 570.203 181.234L570.328 182.219C568.102 182.609 566.242 182.688 563.656 182.688H562.578V178.734H567.641V176.906H562.547ZM564.016 188.828V184.109H572.812V188.828H564.016ZM565.219 187.828H571.625V185.062H565.219V187.828ZM587.25 175.141V185.297H586.031V175.141H587.25ZM576.109 179.516C576.102 177.516 577.672 176.117 579.75 176.109C581.828 176.117 583.383 177.516 583.391 179.516C583.383 181.539 581.828 182.945 579.75 182.938C577.672 182.945 576.102 181.539 576.109 179.516ZM577.312 179.516C577.297 180.898 578.344 181.859 579.75 181.859C581.133 181.859 582.188 180.898 582.188 179.516C582.188 178.156 581.133 177.188 579.75 177.188C578.344 177.188 577.297 178.156 577.312 179.516ZM578.281 188.719V184.266H579.5V187.688H587.688V188.719H578.281ZM605.141 175.141V184.547H603.906V180.078H600.859V179.047H603.906V175.141H605.141ZM593.859 182.656C597.18 181.633 599.234 179.703 599.492 177.234H594.547V176.234H600.797C600.789 179.797 598.398 182.359 594.406 183.641L593.859 182.656ZM595.312 188C597.773 187.57 600.016 186.016 600.031 183.969V183.328H601.234V183.969C601.242 185.992 603.461 187.516 605.906 187.953L605.391 188.938C603.344 188.547 601.453 187.461 600.633 185.836C599.789 187.477 597.883 188.562 595.812 188.969L595.312 188ZM622.328 175.125V178.375H624.422V179.391H622.328V182.562H621.109V175.125H622.328ZM611.516 181.828C615.047 181.047 617.031 179.297 617.234 177.109H612.109V176.109H618.594C618.586 179.586 616.125 181.891 612.031 182.828L611.516 181.828ZM613.531 188.828V183.188H622.391V184.125H614.766V185.5H622.234V186.438H614.766V187.875H622.719V188.828H613.531ZM628.125 183.469V185.094H635.062V183.469H636.297V188.828H626.906V183.469H628.125ZM625.297 182.484V181.469H637.953V182.484H625.297ZM626.016 179.5C628.492 179.164 631 177.703 631 175.938V175.281H632.266V175.938C632.258 177.648 634.789 179.188 637.234 179.5L636.781 180.484C634.633 180.164 632.516 179.07 631.633 177.516C630.75 179.078 628.625 180.164 626.484 180.484L626.016 179.5ZM628.125 187.844H635.062V186.062H628.125V187.844ZM650.578 175.125V189.016H649.359V175.125H650.578ZM640.031 185.438V176.5H641.234V184.375C643.359 184.359 645.547 184.195 647.875 183.703L648.047 184.75C645.578 185.266 643.383 185.438 641.156 185.438H640.031ZM663.703 175.125V180.625H666.031V181.656H663.703V189.047H662.484V175.125H663.703ZM653.562 185.562V176.484H660.047V177.5H654.781V184.531C657.297 184.523 659.07 184.414 661.141 184.031L661.297 185.094C659.117 185.484 657.297 185.562 654.656 185.562H653.562ZM668.25 187.844C667.703 187.836 667.234 187.383 667.25 186.828C667.234 186.281 667.703 185.828 668.25 185.828C668.805 185.828 669.258 186.281 669.25 186.828C669.258 187.383 668.805 187.836 668.25 187.844ZM685.578 175.125V180.625H687.906V181.656H685.578V189.047H684.359V175.125H685.578ZM675.438 185.562V176.484H681.922V177.5H676.656V184.531C679.172 184.523 680.945 184.414 683.016 184.031L683.172 185.094C680.992 185.484 679.172 185.562 676.531 185.562H675.438ZM695.672 176.391V182.781H689.25V176.391H695.672ZM690.453 181.797H694.484V177.391H690.453V181.797ZM690.828 188.719V184.344H692.031V187.688H700.156V188.719H690.828ZM698.297 185.312V175.125H699.516V179.359H701.609V180.391H699.516V185.312H698.297ZM711.5 178.109C711.508 179.984 712.984 181.672 715.062 182.328L714.438 183.312C712.82 182.758 711.539 181.617 710.906 180.156C710.305 181.734 709 182.984 707.344 183.594L706.703 182.609C708.789 181.883 710.258 180.078 710.266 178.109V177.297H707.016V176.297H714.703V177.297H711.5V178.109ZM709 188.719V184.359H710.219V187.688H718.406V188.719H709ZM716.75 185.328V175.141H717.969V185.328H716.75ZM732.125 175.125V183.922H730.953V179.938H729.094V183.422H727.938V175.406H729.094V178.922H730.953V175.125H732.125ZM720.25 177.781V176.797H723.219V175.234H724.438V176.797H727.375V177.781H720.25ZM720.859 180.906C720.852 179.453 722.078 178.523 723.828 178.531C725.586 178.523 726.805 179.453 726.812 180.906C726.805 182.336 725.586 183.266 723.828 183.266C722.078 183.266 720.852 182.336 720.859 180.906ZM721.953 180.906C721.953 181.758 722.719 182.344 723.828 182.344C724.938 182.344 725.703 181.758 725.703 180.906C725.703 180.023 724.938 179.438 723.828 179.438C722.719 179.438 721.953 180.023 721.953 180.906ZM722.875 186.594C722.859 185.031 724.602 184.156 727.531 184.156C730.453 184.156 732.195 185.031 732.203 186.594C732.195 188.117 730.453 188.984 727.531 188.984C724.602 188.984 722.859 188.117 722.875 186.594ZM724.094 186.594C724.078 187.492 725.367 188.039 727.531 188.031C729.688 188.039 730.969 187.492 730.984 186.594C730.969 185.641 729.688 185.109 727.531 185.125C725.367 185.109 724.078 185.641 724.094 186.594ZM742.812 177.375C742.812 179.266 744.25 181 746.266 181.688L745.594 182.656C744.062 182.094 742.852 180.945 742.242 179.492C741.648 181.141 740.406 182.414 738.781 183.047L738.125 182.062C740.203 181.289 741.602 179.43 741.609 177.281V175.844H742.812V177.375ZM739.969 186.453C739.977 184.867 741.719 183.938 744.578 183.938C747.43 183.938 749.156 184.867 749.156 186.453C749.156 188.07 747.43 188.984 744.578 188.984C741.719 188.984 739.977 188.07 739.969 186.453ZM741.203 186.453C741.188 187.438 742.484 188.008 744.578 188.016C746.68 188.008 747.961 187.438 747.969 186.453C747.961 185.508 746.68 184.922 744.578 184.922C742.484 184.922 741.188 185.508 741.203 186.453ZM747.812 183.578V175.125H749.031V178.75H751.125V179.781H749.031V183.578H747.812ZM762.844 175.141V179.328H764.922V180.359H762.844V184.562H761.609V175.141H762.844ZM751.938 182.938C753.047 182.938 754.352 182.938 755.703 182.891V181.789C754.07 181.641 753.039 180.93 753.047 179.828C753.039 178.586 754.32 177.859 756.297 177.859C758.273 177.859 759.547 178.586 759.562 179.828C759.547 180.922 758.539 181.633 756.922 181.781V182.844C758.219 182.781 759.531 182.672 760.75 182.5L760.859 183.359C757.867 183.883 754.539 183.93 752.078 183.922L751.938 182.938ZM752.281 177.281V176.328H755.703V175.016H756.922V176.328H760.328V177.281H752.281ZM753.797 186.875C753.789 185.484 755.461 184.719 758.359 184.734C761.25 184.719 762.93 185.484 762.938 186.875C762.93 188.258 761.25 189 758.359 189.016C755.461 189 753.789 188.258 753.797 186.875ZM754.219 179.828C754.211 180.523 755.016 180.953 756.297 180.953C757.578 180.953 758.391 180.523 758.391 179.828C758.391 179.156 757.578 178.711 756.297 178.719C755.016 178.711 754.211 179.156 754.219 179.828ZM755.031 186.875C755.016 187.625 756.219 188.078 758.359 188.078C760.484 188.078 761.68 187.625 761.688 186.875C761.68 186.094 760.484 185.641 758.359 185.656C756.219 185.641 755.016 186.094 755.031 186.875ZM777.734 175.125V189.016H776.547V175.125H777.734ZM766 181.125C766.008 178.172 767.18 176.305 768.984 176.297C770.672 176.305 771.812 177.93 771.969 180.547H773.766V175.422H774.938V188.312H773.766V181.562H771.977C771.859 184.266 770.695 185.961 768.984 185.953C767.18 185.961 766.008 184.078 766 181.125ZM767.156 181.125C767.141 183.375 767.859 184.797 768.984 184.781C770.117 184.797 770.836 183.375 770.828 181.125C770.836 178.867 770.117 177.453 768.984 177.453C767.859 177.453 767.141 178.867 767.156 181.125ZM795.547 175.125V189.016H794.375V181.734H792.328V188.297H791.203V175.438H792.328V180.719H794.375V175.125H795.547ZM784.188 185.578V176.828H789.391V177.844H785.406V184.531C787.32 184.523 788.641 184.453 790.188 184.141L790.297 185.172C788.625 185.516 787.211 185.57 785.078 185.578H784.188ZM804.438 177.531V178.531H797.469V177.531H800.359V175.547H801.578V177.531H804.438ZM797.969 182.625C797.969 180.781 799.227 179.477 800.953 179.469C802.703 179.477 803.953 180.781 803.969 182.625C803.953 184.492 802.703 185.805 800.953 185.812C799.227 185.805 797.969 184.492 797.969 182.625ZM799.062 182.625C799.062 183.859 799.852 184.742 800.953 184.734C802.062 184.742 802.875 183.859 802.875 182.625C802.875 181.406 802.062 180.516 800.953 180.5C799.852 180.516 799.062 181.406 799.062 182.625ZM805.156 188.328V175.469H806.312V180.984H808.156V175.125H809.328V189.016H808.156V182H806.312V188.328H805.156ZM518.156 194.766V195.766H513.75C513.758 197.391 516.117 198.648 518.578 198.922L518.125 199.906C515.852 199.617 513.719 198.586 512.953 197.023C512.188 198.586 510.07 199.617 507.797 199.906L507.344 198.922C509.789 198.641 512.148 197.391 512.156 195.766H507.781V194.766H518.156ZM506.625 201.828V200.828H519.328V201.828H506.625ZM508.031 204.281V203.281H517.719V208.016H516.484V204.281H508.031ZM525.391 197.859C525.383 200.398 527.109 202.945 529.156 203.875L528.406 204.844C526.82 204.078 525.453 202.43 524.789 200.453C524.148 202.547 522.781 204.305 521.156 205.125L520.375 204.094C522.445 203.148 524.156 200.492 524.172 197.859V195.328H525.391V197.859ZM530.672 208.047V194.125H531.906V208.047H530.672ZM544.578 202.906C547.555 202.906 549.445 203.844 549.453 205.453C549.445 207.047 547.555 207.984 544.578 207.984C541.602 207.984 539.711 207.047 539.719 205.453C539.711 203.844 541.602 202.906 544.578 202.906ZM538.312 201.609V200.609H543.547V197.922H544.75V200.609H550.953V201.609H538.312ZM539.812 195.844V194.844H549.344V196.016C549.336 197.141 549.336 198.266 548.953 199.703L547.75 199.562C548.125 198.133 548.125 197.102 548.125 196.016V195.844H539.812ZM540.938 205.453C540.93 206.422 542.367 207.016 544.578 207.016C546.797 207.016 548.219 206.422 548.234 205.453C548.219 204.461 546.797 203.852 544.578 203.844C542.367 203.852 540.93 204.461 540.938 205.453ZM564.828 202.047V203.062H561.469V208.016H560.234V203.062H556.672V208.016H555.406V203.062H552.109V202.047H564.828ZM553.547 197.719C553.555 195.867 555.516 194.695 558.438 194.688C561.352 194.695 563.328 195.867 563.328 197.719C563.328 199.57 561.352 200.727 558.438 200.719C555.516 200.727 553.555 199.57 553.547 197.719ZM554.812 197.719C554.797 198.945 556.273 199.734 558.438 199.734C560.602 199.734 562.07 198.945 562.078 197.719C562.07 196.484 560.602 195.688 558.438 195.688C556.273 195.688 554.797 196.484 554.812 197.719ZM576.703 194.125V199.859H579.031V200.875H576.703V208.016H575.484V194.125H576.703ZM565.875 197.375V196.359H569.453V194.297H570.672V196.359H574.141V197.375H565.875ZM566.672 201.719C566.664 199.844 568.102 198.531 570.078 198.531C572.039 198.531 573.469 199.844 573.484 201.719C573.469 203.602 572.039 204.906 570.078 204.906C568.102 204.906 566.664 203.602 566.672 201.719ZM567.844 201.719C567.836 202.984 568.781 203.875 570.078 203.859C571.359 203.875 572.297 202.984 572.312 201.719C572.297 200.461 571.359 199.555 570.078 199.562C568.781 199.555 567.836 200.461 567.844 201.719ZM591.016 198.344V199.328H581.5V194.641H582.719V198.344H591.016ZM579.766 202.219V201.219H592.484V202.219H579.766ZM581.422 207.672V203.641H582.641V206.656H591.094V207.672H581.422ZM605.094 194.984V196H599.672V197.734H604.703V198.719H599.672V200.562C602.625 200.57 604.281 200.508 606.234 200.172L606.359 201.172C604.336 201.523 602.633 201.57 599.562 201.562H598.438V194.984H605.094ZM600.062 207.828V203.109H609.094V207.828H600.062ZM601.266 206.828H607.891V204.094H601.266V206.828ZM607.875 202.422V194.141H609.094V202.422H607.875ZM622.953 194.141V208.031H621.703V204.578H618.5V203.641H621.703V194.141H622.953ZM611.391 201.453C614.039 201.445 617.562 201.438 620.625 201L620.703 201.922C619.328 202.156 617.898 202.289 616.516 202.375V207.594H615.281V202.438C613.953 202.484 612.68 202.5 611.562 202.5L611.391 201.453ZM612.453 197.562C612.445 195.93 613.883 194.828 615.969 194.828C618.031 194.828 619.477 195.93 619.469 197.562C619.477 199.211 618.031 200.273 615.969 200.281C613.883 200.273 612.445 199.211 612.453 197.562ZM613.609 197.562C613.602 198.617 614.57 199.336 615.969 199.328C617.336 199.336 618.305 198.617 618.312 197.562C618.305 196.516 617.336 195.789 615.969 195.781C614.57 195.789 613.602 196.516 613.609 197.562ZM636.359 195.547V197.266C636.367 199.312 636.367 201.203 635.781 204.016L634.547 203.906C634.859 202.57 635.008 201.414 635.086 200.336L626.609 200.797L626.438 199.781L635.141 199.422C635.164 198.688 635.172 197.977 635.172 197.266V196.578H626.812V195.547H636.359ZM625.281 206.062V205.031H637.938V206.062H625.281ZM654.344 198.016V199.031H644.859V194.406H646.078V198.016H654.344ZM643.125 201.672V200.656H655.797V201.672H643.125ZM644.656 205.438C644.648 203.82 646.453 202.914 649.453 202.922C652.43 202.914 654.219 203.82 654.234 205.438C654.219 207.047 652.43 207.953 649.453 207.953C646.453 207.953 644.648 207.047 644.656 205.438ZM645.906 205.438C645.891 206.406 647.227 206.992 649.453 207C651.656 206.992 652.992 206.406 653 205.438C652.992 204.453 651.656 203.898 649.453 203.891C647.227 203.898 645.891 204.453 645.906 205.438ZM663.547 194.984V198.875H658.766V201.031C661.375 201.039 662.727 200.984 664.359 200.688L664.484 201.703C662.758 201.984 661.344 202.031 658.531 202.031H657.547V197.938H662.328V195.969H657.516V194.984H663.547ZM659.109 204.422V203.422H668.469V208.047H667.234V204.422H659.109ZM664.469 200.094V199.078H667.234V197.203H664.469V196.203H667.234V194.141H668.469V202.672H667.234V200.094H664.469ZM682.234 194.125V208.047H681V194.125H682.234ZM671.297 200.047C671.305 197.094 672.773 195.211 674.844 195.203C676.906 195.211 678.398 197.094 678.391 200.047C678.398 203.008 676.906 204.883 674.844 204.875C672.773 204.883 671.305 203.008 671.297 200.047ZM672.484 200.047C672.484 202.305 673.453 203.789 674.844 203.781C676.242 203.789 677.203 202.305 677.203 200.047C677.203 197.789 676.242 196.305 674.844 196.297C673.453 196.305 672.484 197.789 672.484 200.047ZM699.375 194.125V199.625H701.703V200.656H699.375V208.047H698.156V194.125H699.375ZM689.234 204.562V195.484H695.719V196.5H690.453V203.531C692.969 203.523 694.742 203.414 696.812 203.031L696.969 204.094C694.789 204.484 692.969 204.562 690.328 204.562H689.234ZM715.172 205.188V206.203H702.453V205.188H708.141V201.781H709.344V205.188H715.172ZM702.953 200.922C705.383 200.508 708.086 198.477 708.094 196.141V195.078H709.375V196.141C709.383 198.461 712.125 200.508 714.547 200.922L714 201.938C711.883 201.5 709.648 200.07 708.75 198.07C707.836 200.062 705.625 201.5 703.5 201.938L702.953 200.922ZM733 202.375V203.375H727.203V208.016H726V203.375H720.281V202.375H733ZM721.906 200.688V194.703H723.125V196.625H730.125V194.703H731.359V200.688H721.906ZM723.125 199.688H730.125V197.625H723.125V199.688ZM745.656 194.703V195.703H741.25C741.273 197.281 743.625 198.531 746.078 198.812L745.625 199.781C743.352 199.492 741.219 198.477 740.453 196.93C739.688 198.477 737.57 199.492 735.297 199.781L734.844 198.812C737.281 198.531 739.633 197.281 739.656 195.703H735.281V194.703H745.656ZM734.125 202.125V201.109H739.844V199H741.047V201.109H746.828V202.125H734.125ZM735.531 204.5V203.5H745.219V208.016H743.984V204.5H735.531ZM758.812 194.125V197.688H760.906V198.734H758.812V202.203H757.594V194.125H758.812ZM747.984 196.578V195.562H751.516V194H752.734V195.562H756.266V196.578H747.984ZM748.781 199.656C748.773 198.172 750.109 197.227 752.125 197.219C754.117 197.227 755.453 198.172 755.469 199.656C755.453 201.141 754.117 202.102 752.125 202.094C750.109 202.102 748.773 201.141 748.781 199.656ZM749.953 199.656C749.945 200.562 750.812 201.156 752.125 201.156C753.422 201.156 754.297 200.562 754.312 199.656C754.297 198.758 753.422 198.156 752.125 198.172C750.812 198.156 749.945 198.758 749.953 199.656ZM750.031 207.828V202.812H751.25V204.297H757.594V202.812H758.812V207.828H750.031ZM751.25 206.844H757.594V205.266H751.25V206.844ZM773.234 194.125V208.016H772.016V194.125H773.234ZM762.688 204.438V195.5H763.891V203.375C766.016 203.359 768.203 203.195 770.531 202.703L770.703 203.75C768.234 204.266 766.039 204.438 763.812 204.438H762.688ZM786.359 194.125V199.625H788.688V200.656H786.359V208.047H785.141V194.125H786.359ZM776.219 204.562V195.484H782.703V196.5H777.438V203.531C779.953 203.523 781.727 203.414 783.797 203.031L783.953 204.094C781.773 204.484 779.953 204.562 777.312 204.562H776.219ZM790.906 206.844C790.359 206.836 789.891 206.383 789.906 205.828C789.891 205.281 790.359 204.828 790.906 204.828C791.461 204.828 791.914 205.281 791.906 205.828C791.914 206.383 791.461 206.836 790.906 206.844Z" fill="#E5E7EB"/>
<path d="M533.918 329.648V334.805H536.871V336.938H533.918V342.07H531.316V329.648H533.918ZM517.137 340.289C521.93 338.977 524.789 336.387 525.234 333.211H518.098V331.102H528.059C528.07 336.668 524.438 340.629 518.168 342.398L517.137 340.289ZM519.996 346.57C519.973 343.957 522.809 342.328 527.074 342.328C531.375 342.328 534.152 343.957 534.152 346.57C534.152 349.207 531.375 350.824 527.074 350.812C522.809 350.824 519.973 349.207 519.996 346.57ZM522.574 346.57C522.562 347.953 524.273 348.773 527.074 348.773C529.863 348.773 531.586 347.953 531.598 346.57C531.586 345.176 529.863 344.367 527.074 344.367C524.273 344.367 522.562 345.176 522.574 346.57ZM555.691 329.648V341.953H553.09V336.82H549.434V334.688H553.09V329.648H555.691ZM537.902 339.844C541.277 338.73 543.082 335.918 543.082 333.117V332.953H538.676V330.844H550.113V332.953H545.73V333.141C545.73 335.684 547.441 338.309 550.723 339.422L549.41 341.484C547.043 340.676 545.367 339.059 544.441 337.055C543.504 339.281 541.746 341.051 539.238 341.883L537.902 339.844ZM541.605 350.578V342.867H555.691V350.578H541.605ZM544.207 348.469H553.137V344.93H544.207V348.469ZM575.871 331.734C575.848 338.121 573.926 343.699 566.051 347.555L564.668 345.539C568.312 343.758 570.574 341.637 571.875 339.094L565.137 339.703L564.809 337.477L572.707 336.984C573 336 573.176 334.945 573.27 333.844H565.887V331.734H575.871ZM579.457 350.836V329.648H582.082V350.836H579.457ZM603.012 329.672V350.812H600.363V345.961H595.863V343.992H600.363V329.672H603.012ZM585.035 340.547C589.02 340.535 594.316 340.523 598.91 339.891L599.074 341.812C597.129 342.141 595.125 342.352 593.168 342.48V350.18H590.543V342.609C588.691 342.68 586.934 342.68 585.363 342.68L585.035 340.547ZM586.559 334.875C586.559 332.355 588.809 330.586 591.996 330.586C595.113 330.586 597.387 332.355 597.387 334.875C597.387 337.453 595.113 339.129 591.996 339.141C588.809 339.129 586.559 337.453 586.559 334.875ZM589.02 334.875C589.008 336.293 590.215 337.148 591.996 337.148C593.684 337.148 594.902 336.293 594.902 334.875C594.902 333.492 593.695 332.578 591.996 332.578C590.215 332.578 589.008 333.492 589.02 334.875ZM623.074 339.586V341.672H608.215V331.5H622.91V333.609H610.793V339.586H623.074ZM605.871 348.141V345.984H625.23V348.141H605.871ZM632.941 330.961C636.199 330.961 638.684 333.059 638.707 336.07C638.684 338.66 636.855 340.57 634.277 341.051V344.18C636.047 344.086 637.805 343.957 639.457 343.734L639.645 345.68C635.203 346.477 630.363 346.5 626.73 346.453L626.355 344.32C627.949 344.32 629.777 344.309 631.676 344.262V341.074C629.016 340.605 627.176 338.684 627.199 336.07C627.176 333.059 629.613 330.961 632.941 330.961ZM629.73 336.07C629.719 337.84 631.09 338.977 632.941 338.953C634.758 338.977 636.117 337.84 636.129 336.07C636.117 334.289 634.758 333.188 632.941 333.164C631.09 333.188 629.719 334.289 629.73 336.07ZM640.676 350.836V329.648H643.277V338.109H646.348V340.312H643.277V350.836H640.676ZM664.465 330.891V333H656.871V334.969H663.855V337.008H656.871V339.094C660.832 339.094 663.246 339.023 666.035 338.555L666.293 340.594C663.258 341.121 660.598 341.18 656.027 341.156H654.223V330.891H664.465ZM656.637 350.578V343.195H670.699V350.578H656.637ZM659.215 348.469H668.145V345.211H659.215V348.469ZM668.074 342.258V329.672H670.699V342.258H668.074ZM691.559 329.672V345.703H688.934V343.852H684.785V342.023H688.934V329.672H691.559ZM673.699 339.188C677.602 339.164 682.863 339.129 687.363 338.555L687.504 340.43C685.758 340.723 683.953 340.91 682.16 341.039V345.117H679.559V341.18C677.578 341.262 675.691 341.273 674.027 341.273L673.699 339.188ZM675.316 334.195C675.316 331.957 677.473 330.434 680.613 330.445C683.695 330.434 685.863 331.957 685.887 334.195C685.863 336.469 683.695 337.91 680.613 337.922C677.473 337.91 675.316 336.469 675.316 334.195ZM676.512 350.414V344.156H679.113V348.305H692.051V350.414H676.512ZM677.777 334.195C677.777 335.344 678.914 336.012 680.613 336.023C682.23 336.012 683.391 335.344 683.402 334.195C683.391 333.047 682.23 332.355 680.613 332.367C678.914 332.355 677.777 333.047 677.777 334.195ZM712.066 331.125V333.234H710.191V339.246C710.965 339.188 711.738 339.117 712.465 339.023V337.125H715.371V335.297H712.465V333.211H715.371V329.648H717.973V342.633H715.371V339.211H712.523L712.629 340.945C708.586 341.613 703.91 341.684 700.535 341.695L700.254 339.539C700.992 339.539 701.801 339.539 702.645 339.527V333.234H700.793V331.125H712.066ZM703.605 346.922C703.582 344.426 706.312 343.008 710.801 343.008C715.324 343.008 718.031 344.426 718.043 346.922C718.031 349.359 715.324 350.812 710.801 350.812C706.312 350.812 703.582 349.359 703.605 346.922ZM705.176 339.492C705.996 339.469 706.84 339.434 707.684 339.398V333.234H705.176V339.492ZM706.184 346.922C706.172 348.152 707.836 348.797 710.801 348.797C713.777 348.797 715.441 348.152 715.441 346.922C715.441 345.668 713.777 345 710.801 345C707.836 345 706.172 345.668 706.184 346.922ZM737.566 329.648V337.922H740.707V340.102H737.566V350.789H734.965V329.648H737.566ZM720.855 345C726.012 342.422 728.801 338.836 729.316 334.008H722.004V331.852H731.965C731.953 338.074 729.375 343.547 722.332 347.016L720.855 345ZM761.074 346.125V348.258H741.715V346.125H746.191V340.77C744.504 339.797 743.484 338.273 743.496 336.398C743.484 333.023 746.789 330.797 751.348 330.797C755.93 330.797 759.258 333.023 759.246 336.398C759.258 338.25 758.262 339.738 756.621 340.711V346.125H761.074ZM746.051 336.398C746.039 338.566 748.184 339.949 751.348 339.938C754.5 339.949 756.691 338.566 756.691 336.398C756.691 334.195 754.5 332.848 751.348 332.859C748.184 332.848 746.039 334.195 746.051 336.398ZM748.77 346.125H753.973V341.707C753.164 341.883 752.285 341.977 751.348 341.977C750.434 341.977 749.566 341.883 748.77 341.719V346.125ZM782.051 332.602V334.711H779.168V337.148H782.051V339.328H779.168V342.164H776.566V329.648H779.168V332.602H782.051ZM762.691 335.953C762.68 332.977 765.141 330.844 768.41 330.867C771.668 330.844 774.105 332.977 774.129 335.953C774.105 338.977 771.668 341.074 768.41 341.086C765.141 341.074 762.68 338.977 762.691 335.953ZM765.059 345.188V343.078H779.168V350.836H776.566V345.188H765.059ZM765.246 335.953C765.234 337.758 766.582 338.871 768.41 338.859C770.215 338.871 771.562 337.758 771.574 335.953C771.562 334.184 770.215 333.082 768.41 333.07C766.582 333.082 765.234 334.184 765.246 335.953Z" fill="white"/>
<defs>
<linearGradient id="paint0_linear_2145_28935" x1="137.258" y1="86.1875" x2="137.258" y2="226.271" gradientUnits="userSpaceOnUse">
<stop offset="0.005" stop-color="#A855F7"/>
<stop offset="1" stop-color="#6366F1"/>
</linearGradient>
</defs>
</svg>
