<svg viewBox="0 0 1920 857" fill="none" xmlns="http://www.w3.org/2000/svg">
<path d="M2219.8 97.3354C2214.83 78.7696 2201.39 62.8948 2180.28 49.6901C2159.16 36.4838 2130.38 25.9705 2094.81 18.1263C2023.67 2.43814 1925.44 -2.55105 1807.12 2.85426C1570.47 13.6646 1253.56 66.0441 912.471 157.437C571.386 248.831 270.74 361.926 60.3943 470.887C-44.7825 525.369 -127.358 578.805 -181.124 627.962C-208.007 652.541 -227.667 676.031 -239.354 698.028C-251.04 720.022 -254.737 740.487 -249.762 759.053C-244.787 777.619 -231.353 793.493 -210.236 806.698C-189.117 819.904 -160.345 830.418 -124.774 838.262C-53.6332 853.95 44.5974 858.939 162.924 853.534C399.57 842.724 716.484 790.344 1057.57 698.951C1398.65 607.557 1699.3 494.462 1909.65 385.502C2014.82 331.019 2097.4 277.583 2151.16 228.426C2178.05 203.848 2197.71 180.357 2209.39 158.36C2221.08 136.366 2224.78 115.901 2219.8 97.3354Z" stroke="white" stroke-opacity="0.5"/>
</svg>
