<svg width="135" height="43" viewBox="0 0 135 43" fill="none" xmlns="http://www.w3.org/2000/svg">
<path d="M68.3398 9.66602H82.3404C84.6738 9.66602 86.3625 10.1994 87.4072 11.2661C88.4739 12.3105 89.0072 13.9995 89.0072 16.3329V19.333C89.0072 21.1775 88.6959 22.6108 88.0739 23.6331C87.4739 24.6554 86.5072 25.3332 85.1738 25.6665L89.3406 33.0001H82.8404L79.0069 25.9999H74.34V33.0001H68.3398V9.66602ZM83.0071 16.3329C83.0071 14.9995 82.3404 14.3328 81.007 14.3328H74.34V21.333H81.007C82.3404 21.333 83.0071 20.6664 83.0071 19.333V16.3329Z" fill="url(#paint0_linear_834_8187)"/>
<path d="M47.001 9.66602H61.0014C63.3348 9.66602 65.0237 10.1994 66.0682 11.2661C67.1349 12.3105 67.6683 13.9995 67.6683 16.3329V19.6663C67.6683 21.9997 67.1349 23.6998 66.0682 24.7665C65.0237 25.8109 63.3348 26.3332 61.0014 26.3332H53.0012V33.0001H47.001V9.66602ZM61.6681 16.3329C61.6681 14.9995 61.0014 14.3328 59.668 14.3328H53.0012V21.6664H59.668C61.0014 21.6664 61.6681 20.9997 61.6681 19.6663V16.3329Z" fill="url(#paint1_linear_834_8187)"/>
<path d="M120.806 18.5996C122.246 18.5996 123.357 19.133 124.139 20.1997C124.957 19.6485 125.837 19.2485 126.779 18.9996C127.739 18.7329 128.593 18.5996 129.339 18.5996H129.606C130.815 18.5996 131.784 18.9641 132.513 19.693C133.242 20.4219 133.606 21.3908 133.606 22.5997V33.0001H128.939V23.3998C128.939 23.1331 128.85 22.9108 128.673 22.7331C128.495 22.5553 128.273 22.4664 128.006 22.4664H127.873C127.073 22.4664 126.05 22.6442 124.806 22.9997V33.0001H120.139V23.3998C120.139 23.1331 120.05 22.9108 119.872 22.7331C119.694 22.5553 119.472 22.4664 119.206 22.4664H119.072C118.272 22.4664 117.25 22.6442 116.006 22.9997V33.0001H111.339V18.8663H115.472L115.739 20.1997C116.574 19.6485 117.428 19.2485 118.299 18.9996C119.188 18.7329 119.934 18.5996 120.539 18.5996H120.806Z" fill="black"/>
<path d="M96.567 29.2675C100.176 29.5342 103.02 29.6675 105.101 29.6675C105.367 29.6675 105.59 29.5786 105.767 29.4008C105.945 29.2231 106.034 29.0008 106.034 28.7342V27.8008H100.3C99.0914 27.8008 98.1227 27.4364 97.3937 26.7074C96.6646 25.9785 96.3003 25.0096 96.3003 23.8007V22.8673C96.3003 21.6584 96.6646 20.6895 97.3937 19.9606C98.1227 19.2316 99.0914 18.8672 100.3 18.8672H109.367V22.334H101.9C101.634 22.334 101.411 22.4229 101.234 22.6006C101.056 22.7784 100.967 23.0006 100.967 23.2673C100.967 23.534 101.056 23.7562 101.234 23.934C101.411 24.1118 101.634 24.2007 101.9 24.2007H106.701C107.91 24.2007 108.878 24.5651 109.607 25.2941C110.336 26.023 110.701 26.9919 110.701 28.2008V29.2675C110.701 30.4764 110.336 31.4453 109.607 32.1743C108.878 32.9032 107.91 33.2676 106.701 33.2676C103.554 33.2676 100.176 33.0899 96.567 32.7343V29.2675Z" fill="black"/>
<path d="M90.9391 19.334L90.6685 33.0011H95.0019V19.334H90.9391Z" fill="black"/>
<path d="M89.5757 15.218L91.4651 11.3438L95.7339 11.9437L96.4822 16.1887L92.6764 18.2124L89.5757 15.218Z" fill="black"/>
<path d="M21.5 11.875L30.6528 18.5249L27.1567 29.2847H15.8432L12.3472 18.5249L21.5 11.875Z" stroke="url(#paint2_linear_834_8187)" stroke-width="0.409524"/>
<path d="M2.01562 15.1683L21.5005 1.01172L40.9854 15.1683L33.5427 38.0742H9.45818L2.01562 15.1683Z" stroke="url(#paint3_linear_834_8187)" stroke-width="1.6381"/>
<path d="M10.4453 25.0907L21.4995 33.1221L32.5538 25.0907L28.3314 12.0957H14.6676L10.4453 25.0907Z" stroke="url(#paint4_linear_834_8187)" stroke-width="0.409524"/>
<path d="M21.4999 12.7966C21.8957 12.7966 22.2165 12.4758 22.2165 12.0799C22.2165 11.6841 21.8957 11.3633 21.4999 11.3633C21.1041 11.3633 20.7832 11.6841 20.7832 12.0799C20.7832 12.4758 21.1041 12.7966 21.4999 12.7966Z" fill="url(#paint5_linear_834_8187)" stroke="url(#paint6_linear_834_8187)" stroke-width="0.204762"/>
<path d="M30.7142 19.3513C31.11 19.3513 31.4309 19.0304 31.4309 18.6346C31.4309 18.2388 31.11 17.918 30.7142 17.918C30.3184 17.918 29.9976 18.2388 29.9976 18.6346C29.9976 19.0304 30.3184 19.3513 30.7142 19.3513Z" fill="url(#paint7_linear_834_8187)" stroke="url(#paint8_linear_834_8187)" stroke-width="0.204762"/>
<path d="M27.0282 29.7927C27.424 29.7927 27.7449 29.4718 27.7449 29.076C27.7449 28.6802 27.424 28.3594 27.0282 28.3594C26.6324 28.3594 26.3115 28.6802 26.3115 29.076C26.3115 29.4718 26.6324 29.7927 27.0282 29.7927Z" fill="url(#paint9_linear_834_8187)" stroke="url(#paint10_linear_834_8187)" stroke-width="0.204762"/>
<path d="M15.972 29.7927C16.3678 29.7927 16.6887 29.4718 16.6887 29.076C16.6887 28.6802 16.3678 28.3594 15.972 28.3594C15.5762 28.3594 15.2554 28.6802 15.2554 29.076C15.2554 29.4718 15.5762 29.7927 15.972 29.7927Z" fill="url(#paint11_linear_834_8187)" stroke="url(#paint12_linear_834_8187)" stroke-width="0.204762"/>
<path d="M12.4906 19.3513C12.8864 19.3513 13.2073 19.0304 13.2073 18.6346C13.2073 18.2388 12.8864 17.918 12.4906 17.918C12.0948 17.918 11.7739 18.2388 11.7739 18.6346C11.7739 19.0304 12.0948 19.3513 12.4906 19.3513Z" fill="url(#paint13_linear_834_8187)" stroke="url(#paint14_linear_834_8187)" stroke-width="0.204762"/>
<path d="M21.4996 1.20703L28.2547 12.0715L28.2986 12.1422L28.3794 12.1622L40.7997 15.2292L32.5543 25.011L32.5007 25.0747L32.5066 25.1576L33.4276 37.9178L21.5768 33.0987L21.4996 33.0672L21.4224 33.0987L9.57163 37.9178L10.4927 25.1576L10.4987 25.0747L10.445 25.011L2.19971 15.2292L14.6198 12.1622L14.7007 12.1422L14.7446 12.0715L21.4996 1.20703Z" stroke="url(#paint15_linear_834_8187)" stroke-width="0.409524"/>
<defs>
<linearGradient id="paint0_linear_834_8187" x1="78.3356" y1="1.99911" x2="78.3356" y2="47.5048" gradientUnits="userSpaceOnUse">
<stop offset="0.005" stop-color="#A855F7"/>
<stop offset="1" stop-color="#6366F1"/>
</linearGradient>
<linearGradient id="paint1_linear_834_8187" x1="56.834" y1="1.99911" x2="56.834" y2="47.5048" gradientUnits="userSpaceOnUse">
<stop offset="0.005" stop-color="#A855F7"/>
<stop offset="1" stop-color="#6366F1"/>
</linearGradient>
<linearGradient id="paint2_linear_834_8187" x1="21.5" y1="11.875" x2="21.5" y2="33.5902" gradientUnits="userSpaceOnUse">
<stop offset="0.005" stop-color="#A855F7"/>
<stop offset="1" stop-color="#6366F1"/>
</linearGradient>
<linearGradient id="paint3_linear_834_8187" x1="21.5005" y1="-0.00067936" x2="21.5005" y2="48.5121" gradientUnits="userSpaceOnUse">
<stop offset="0.005" stop-color="#A855F7"/>
<stop offset="1" stop-color="#6366F1"/>
</linearGradient>
<linearGradient id="paint4_linear_834_8187" x1="21.4995" y1="33.3752" x2="21.4995" y2="6.57762" gradientUnits="userSpaceOnUse">
<stop offset="0.005" stop-color="#A855F7"/>
<stop offset="1" stop-color="#6366F1"/>
</linearGradient>
<linearGradient id="paint5_linear_834_8187" x1="21.4999" y1="11.2609" x2="21.4999" y2="13.109" gradientUnits="userSpaceOnUse">
<stop offset="0.005" stop-color="#A855F7"/>
<stop offset="1" stop-color="#6366F1"/>
</linearGradient>
<linearGradient id="paint6_linear_834_8187" x1="21.4999" y1="11.2609" x2="21.4999" y2="13.109" gradientUnits="userSpaceOnUse">
<stop offset="0.005" stop-color="#A855F7"/>
<stop offset="1" stop-color="#6366F1"/>
</linearGradient>
<linearGradient id="paint7_linear_834_8187" x1="30.7142" y1="17.8156" x2="30.7142" y2="19.6637" gradientUnits="userSpaceOnUse">
<stop offset="0.005" stop-color="#A855F7"/>
<stop offset="1" stop-color="#6366F1"/>
</linearGradient>
<linearGradient id="paint8_linear_834_8187" x1="30.7142" y1="17.8156" x2="30.7142" y2="19.6637" gradientUnits="userSpaceOnUse">
<stop offset="0.005" stop-color="#A855F7"/>
<stop offset="1" stop-color="#6366F1"/>
</linearGradient>
<linearGradient id="paint9_linear_834_8187" x1="27.0282" y1="28.257" x2="27.0282" y2="30.1052" gradientUnits="userSpaceOnUse">
<stop offset="0.005" stop-color="#A855F7"/>
<stop offset="1" stop-color="#6366F1"/>
</linearGradient>
<linearGradient id="paint10_linear_834_8187" x1="27.0282" y1="28.257" x2="27.0282" y2="30.1052" gradientUnits="userSpaceOnUse">
<stop offset="0.005" stop-color="#A855F7"/>
<stop offset="1" stop-color="#6366F1"/>
</linearGradient>
<linearGradient id="paint11_linear_834_8187" x1="15.972" y1="28.257" x2="15.972" y2="30.1052" gradientUnits="userSpaceOnUse">
<stop offset="0.005" stop-color="#A855F7"/>
<stop offset="1" stop-color="#6366F1"/>
</linearGradient>
<linearGradient id="paint12_linear_834_8187" x1="15.972" y1="28.257" x2="15.972" y2="30.1052" gradientUnits="userSpaceOnUse">
<stop offset="0.005" stop-color="#A855F7"/>
<stop offset="1" stop-color="#6366F1"/>
</linearGradient>
<linearGradient id="paint13_linear_834_8187" x1="12.4906" y1="17.8156" x2="12.4906" y2="19.6637" gradientUnits="userSpaceOnUse">
<stop offset="0.005" stop-color="#A855F7"/>
<stop offset="1" stop-color="#6366F1"/>
</linearGradient>
<linearGradient id="paint14_linear_834_8187" x1="12.4906" y1="17.8156" x2="12.4906" y2="19.6637" gradientUnits="userSpaceOnUse">
<stop offset="0.005" stop-color="#A855F7"/>
<stop offset="1" stop-color="#6366F1"/>
</linearGradient>
<linearGradient id="paint15_linear_834_8187" x1="21.4996" y1="0.819235" x2="21.4996" y2="47.4839" gradientUnits="userSpaceOnUse">
<stop offset="0.005" stop-color="#A855F7"/>
<stop offset="1" stop-color="#6366F1"/>
</linearGradient>
</defs>
</svg>
