<svg width="136" height="44" viewBox="0 0 136 44" fill="none" xmlns="http://www.w3.org/2000/svg">
<path d="M69.1113 9.69141H83.1462C85.4854 9.69141 87.1782 10.2261 88.2255 11.2954C89.2948 12.3424 89.8295 14.0355 89.8295 16.3746V19.3821C89.8295 21.2311 89.5174 22.668 88.8938 23.6928C88.2923 24.7176 87.3232 25.397 85.9866 25.7312L90.1636 33.0827H83.6475L79.8046 26.0653H75.1262V33.0827H69.1113V9.69141ZM83.8145 16.3746C83.8145 15.038 83.1462 14.3697 81.8096 14.3697H75.1262V21.3871H81.8096C83.1462 21.3871 83.8145 20.7187 83.8145 19.3821V16.3746Z" fill="url(#paint0_linear_2660_2043)"/>
<path d="M47.7188 9.69141H61.7536C64.0927 9.69141 65.7858 10.2261 66.8328 11.2954C67.9021 12.3424 68.4368 14.0355 68.4368 16.3746V19.7163C68.4368 22.0554 67.9021 23.7596 66.8328 24.8289C65.7858 25.876 64.0927 26.3995 61.7536 26.3995H53.7337V33.0827H47.7188V9.69141ZM62.4219 16.3746C62.4219 15.038 61.7536 14.3697 60.4169 14.3697H53.7337V21.7212H60.4169C61.7536 21.7212 62.4219 21.0529 62.4219 19.7163V16.3746Z" fill="url(#paint1_linear_2660_2043)"/>
<path d="M121.707 18.6523C123.151 18.6523 124.264 19.187 125.049 20.2563C125.868 19.7039 126.751 19.3029 127.695 19.0533C128.658 18.786 129.513 18.6523 130.262 18.6523H130.529C131.741 18.6523 132.712 19.0177 133.443 19.7484C134.173 20.4791 134.539 21.4504 134.539 22.6623V33.0881H129.861V23.4643C129.861 23.1969 129.771 22.9742 129.593 22.796C129.415 22.6177 129.192 22.5286 128.925 22.5286H128.791C127.989 22.5286 126.964 22.7068 125.717 23.0633V33.0881H121.039V23.4643C121.039 23.1969 120.949 22.9742 120.771 22.796C120.593 22.6177 120.37 22.5286 120.103 22.5286H119.969C119.167 22.5286 118.142 22.7068 116.895 23.0633V33.0881H112.217V18.9197H116.36L116.628 20.2563C117.465 19.7039 118.321 19.3029 119.194 19.0533C120.085 18.786 120.833 18.6523 121.44 18.6523H121.707Z" fill="#E5E7EB"/>
<path d="M97.408 29.3438C101.026 29.6111 103.877 29.7448 105.962 29.7448C106.23 29.7448 106.453 29.6557 106.631 29.4775C106.809 29.2993 106.898 29.0765 106.898 28.8092V27.8735H101.151C99.9386 27.8735 98.9675 27.5082 98.2367 26.7775C97.5059 26.0467 97.1406 25.0755 97.1406 23.8636V22.9279C97.1406 21.716 97.5059 20.7447 98.2367 20.014C98.9675 19.2833 99.9386 18.918 101.151 18.918H110.24V22.3933H102.755C102.487 22.3933 102.264 22.4824 102.086 22.6606C101.908 22.8388 101.819 23.0616 101.819 23.3289C101.819 23.5962 101.908 23.819 102.086 23.9972C102.264 24.1754 102.487 24.2646 102.755 24.2646H107.566C108.778 24.2646 109.75 24.6299 110.48 25.3606C111.211 26.0913 111.576 27.0626 111.576 28.2745V29.3438C111.576 30.5557 111.211 31.527 110.48 32.2577C109.75 32.9884 108.778 33.3538 107.566 33.3538C104.412 33.3538 101.026 33.1756 97.408 32.8191V29.3438Z" fill="#E5E7EB"/>
<path d="M91.7655 19.3867L91.4941 33.0874H95.8382V19.3867H91.7655Z" fill="#E5E7EB"/>
<path d="M90.4004 15.2588L92.2944 11.375L96.5737 11.9764L97.3239 16.2319L93.5088 18.2605L90.4004 15.2588Z" fill="#E5E7EB"/>
<path d="M22.1596 11.9023L31.335 18.5686L27.8303 29.3548H16.489L12.9844 18.5686L22.1596 11.9023Z" stroke="url(#paint2_linear_2660_2043)" stroke-width="0.410529"/>
<path d="M2.62695 15.207L22.1597 1.01562L41.6924 15.207L34.2315 38.1691H10.0878L2.62695 15.207Z" stroke="url(#paint3_linear_2660_2043)" stroke-width="1.64212"/>
<path d="M11.0762 25.1558L22.1575 33.2069L33.2389 25.1558L29.0062 12.1289H15.3089L11.0762 25.1558Z" stroke="url(#paint4_linear_2660_2043)" stroke-width="0.410529"/>
<path d="M22.1579 12.8275C22.5547 12.8275 22.8763 12.5058 22.8763 12.1091C22.8763 11.7123 22.5547 11.3906 22.1579 11.3906C21.7611 11.3906 21.4395 11.7123 21.4395 12.1091C21.4395 12.5058 21.7611 12.8275 22.1579 12.8275Z" fill="url(#paint5_linear_2660_2043)" stroke="url(#paint6_linear_2660_2043)" stroke-width="0.205265"/>
<path d="M31.3962 19.3978C31.7929 19.3978 32.1146 19.0761 32.1146 18.6794C32.1146 18.2826 31.7929 17.9609 31.3962 17.9609C30.9994 17.9609 30.6777 18.2826 30.6777 18.6794C30.6777 19.0761 30.9994 19.3978 31.3962 19.3978Z" fill="url(#paint7_linear_2660_2043)" stroke="url(#paint8_linear_2660_2043)" stroke-width="0.205265"/>
<path d="M27.6989 29.8665C28.0957 29.8665 28.4173 29.5449 28.4173 29.1481C28.4173 28.7513 28.0957 28.4297 27.6989 28.4297C27.3021 28.4297 26.9805 28.7513 26.9805 29.1481C26.9805 29.5449 27.3021 29.8665 27.6989 29.8665Z" fill="url(#paint9_linear_2660_2043)" stroke="url(#paint10_linear_2660_2043)" stroke-width="0.205265"/>
<path d="M16.6169 29.8665C17.0136 29.8665 17.3353 29.5449 17.3353 29.1481C17.3353 28.7513 17.0136 28.4297 16.6169 28.4297C16.2201 28.4297 15.8984 28.7513 15.8984 29.1481C15.8984 29.5449 16.2201 29.8665 16.6169 29.8665Z" fill="url(#paint11_linear_2660_2043)" stroke="url(#paint12_linear_2660_2043)" stroke-width="0.205265"/>
<path d="M13.1266 19.3978C13.5234 19.3978 13.8451 19.0761 13.8451 18.6794C13.8451 18.2826 13.5234 17.9609 13.1266 17.9609C12.7299 17.9609 12.4082 18.2826 12.4082 18.6794C12.4082 19.0761 12.7299 19.3978 13.1266 19.3978Z" fill="url(#paint13_linear_2660_2043)" stroke="url(#paint14_linear_2660_2043)" stroke-width="0.205265"/>
<path d="M22.1579 1.21094L28.9295 12.1021L28.9735 12.1729L29.0545 12.193L41.5053 15.2676L33.2397 25.0734L33.1859 25.1372L33.1919 25.2203L34.1151 38.0118L22.2352 33.1809L22.1579 33.1493L22.0805 33.1809L10.2006 38.0118L11.1239 25.2203L11.1299 25.1372L11.0761 25.0734L2.81055 15.2676L15.2612 12.193L15.3422 12.1729L15.3863 12.1021L22.1579 1.21094Z" stroke="url(#paint15_linear_2660_2043)" stroke-width="0.410529"/>
<defs>
<linearGradient id="paint0_linear_2660_2043" x1="79.1316" y1="2.00568" x2="79.1316" y2="47.6231" gradientUnits="userSpaceOnUse">
<stop offset="0.005" stop-color="#A855F7"/>
<stop offset="1" stop-color="#6366F1"/>
</linearGradient>
<linearGradient id="paint1_linear_2660_2043" x1="57.5759" y1="2.00568" x2="57.5759" y2="47.6231" gradientUnits="userSpaceOnUse">
<stop offset="0.005" stop-color="#A855F7"/>
<stop offset="1" stop-color="#6366F1"/>
</linearGradient>
<linearGradient id="paint2_linear_2660_2043" x1="22.1596" y1="11.9023" x2="22.1596" y2="33.6709" gradientUnits="userSpaceOnUse">
<stop offset="0.005" stop-color="#A855F7"/>
<stop offset="1" stop-color="#6366F1"/>
</linearGradient>
<linearGradient id="paint3_linear_2660_2043" x1="22.1597" y1="0.000741666" x2="22.1597" y2="48.6326" gradientUnits="userSpaceOnUse">
<stop offset="0.005" stop-color="#A855F7"/>
<stop offset="1" stop-color="#6366F1"/>
</linearGradient>
<linearGradient id="paint4_linear_2660_2043" x1="22.1575" y1="33.4606" x2="22.1575" y2="6.59727" gradientUnits="userSpaceOnUse">
<stop offset="0.005" stop-color="#A855F7"/>
<stop offset="1" stop-color="#6366F1"/>
</linearGradient>
<linearGradient id="paint5_linear_2660_2043" x1="22.1579" y1="11.288" x2="22.1579" y2="13.1406" gradientUnits="userSpaceOnUse">
<stop offset="0.005" stop-color="#A855F7"/>
<stop offset="1" stop-color="#6366F1"/>
</linearGradient>
<linearGradient id="paint6_linear_2660_2043" x1="22.1579" y1="11.288" x2="22.1579" y2="13.1406" gradientUnits="userSpaceOnUse">
<stop offset="0.005" stop-color="#A855F7"/>
<stop offset="1" stop-color="#6366F1"/>
</linearGradient>
<linearGradient id="paint7_linear_2660_2043" x1="31.3962" y1="17.8583" x2="31.3962" y2="19.7109" gradientUnits="userSpaceOnUse">
<stop offset="0.005" stop-color="#A855F7"/>
<stop offset="1" stop-color="#6366F1"/>
</linearGradient>
<linearGradient id="paint8_linear_2660_2043" x1="31.3962" y1="17.8583" x2="31.3962" y2="19.7109" gradientUnits="userSpaceOnUse">
<stop offset="0.005" stop-color="#A855F7"/>
<stop offset="1" stop-color="#6366F1"/>
</linearGradient>
<linearGradient id="paint9_linear_2660_2043" x1="27.6989" y1="28.3271" x2="27.6989" y2="30.1798" gradientUnits="userSpaceOnUse">
<stop offset="0.005" stop-color="#A855F7"/>
<stop offset="1" stop-color="#6366F1"/>
</linearGradient>
<linearGradient id="paint10_linear_2660_2043" x1="27.6989" y1="28.3271" x2="27.6989" y2="30.1798" gradientUnits="userSpaceOnUse">
<stop offset="0.005" stop-color="#A855F7"/>
<stop offset="1" stop-color="#6366F1"/>
</linearGradient>
<linearGradient id="paint11_linear_2660_2043" x1="16.6169" y1="28.3271" x2="16.6169" y2="30.1798" gradientUnits="userSpaceOnUse">
<stop offset="0.005" stop-color="#A855F7"/>
<stop offset="1" stop-color="#6366F1"/>
</linearGradient>
<linearGradient id="paint12_linear_2660_2043" x1="16.6169" y1="28.3271" x2="16.6169" y2="30.1798" gradientUnits="userSpaceOnUse">
<stop offset="0.005" stop-color="#A855F7"/>
<stop offset="1" stop-color="#6366F1"/>
</linearGradient>
<linearGradient id="paint13_linear_2660_2043" x1="13.1266" y1="17.8583" x2="13.1266" y2="19.7109" gradientUnits="userSpaceOnUse">
<stop offset="0.005" stop-color="#A855F7"/>
<stop offset="1" stop-color="#6366F1"/>
</linearGradient>
<linearGradient id="paint14_linear_2660_2043" x1="13.1266" y1="17.8583" x2="13.1266" y2="19.7109" gradientUnits="userSpaceOnUse">
<stop offset="0.005" stop-color="#A855F7"/>
<stop offset="1" stop-color="#6366F1"/>
</linearGradient>
<linearGradient id="paint15_linear_2660_2043" x1="22.1579" y1="0.822189" x2="22.1579" y2="47.6014" gradientUnits="userSpaceOnUse">
<stop offset="0.005" stop-color="#A855F7"/>
<stop offset="1" stop-color="#6366F1"/>
</linearGradient>
</defs>
</svg>
