<svg width="90" height="41" viewBox="0 0 90 41" fill="none" xmlns="http://www.w3.org/2000/svg">
<path d="M23.3398 7.66602H37.3404C39.6738 7.66602 41.3625 8.19937 42.4072 9.26606C43.4739 10.3105 44.0072 11.9995 44.0072 14.3329V17.333C44.0072 19.1775 43.6959 20.6108 43.0739 21.6331C42.4739 22.6554 41.5072 23.3332 40.1738 23.6665L44.3406 31.0001H37.8404L34.0069 23.9999H29.34V31.0001H23.3398V7.66602ZM38.0071 14.3329C38.0071 12.9995 37.3404 12.3328 36.007 12.3328H29.34V19.333H36.007C37.3404 19.333 38.0071 18.6664 38.0071 17.333V14.3329Z" fill="url(#paint0_linear_649_10065)"/>
<path d="M2 7.66602H16.0004C18.3339 7.66602 20.0228 8.19937 21.0673 9.26606C22.134 10.3105 22.6673 11.9995 22.6673 14.3329V17.6663C22.6673 19.9997 22.134 21.6998 21.0673 22.7665C20.0228 23.8109 18.3339 24.3332 16.0004 24.3332H8.0002V31.0001H2V7.66602ZM16.6671 14.3329C16.6671 12.9995 16.0004 12.3328 14.6671 12.3328H8.0002V19.6664H14.6671C16.0004 19.6664 16.6671 18.9997 16.6671 17.6663V14.3329Z" fill="url(#paint1_linear_649_10065)"/>
<path d="M75.8068 16.5996C77.2468 16.5996 78.3579 17.133 79.1402 18.1997C79.9579 17.6485 80.838 17.2485 81.7803 16.9996C82.7403 16.7329 83.5937 16.5996 84.3404 16.5996H84.6071C85.8158 16.5996 86.7848 16.9641 87.5138 17.693C88.2425 18.4219 88.6072 19.3908 88.6072 20.5997V31.0001H83.9404V21.3998C83.9404 21.1331 83.8514 20.9108 83.6737 20.7331C83.4957 20.5553 83.2737 20.4664 83.007 20.4664H82.8737C82.0737 20.4664 81.0513 20.6442 79.8069 20.9997V31.0001H75.1401V21.3998C75.1401 21.1331 75.0511 20.9108 74.8734 20.7331C74.6954 20.5553 74.4734 20.4664 74.2068 20.4664H74.0734C73.2734 20.4664 72.251 20.6442 71.0067 20.9997V31.0001H66.3398V16.8663H70.4733L70.74 18.1997C71.5753 17.6485 72.4287 17.2485 73.3001 16.9996C74.1888 16.7329 74.9354 16.5996 75.5401 16.5996H75.8068Z" fill="black"/>
<path d="M51.5675 27.2675C55.1766 27.5342 58.021 27.6675 60.101 27.6675C60.3677 27.6675 60.5901 27.5786 60.7677 27.4008C60.9454 27.2231 61.0344 27.0008 61.0344 26.7342V25.8008H55.3009C54.0919 25.8008 53.1232 25.4364 52.3941 24.7074C51.6651 23.9785 51.3008 23.0096 51.3008 21.8007V20.8673C51.3008 19.6584 51.6651 18.6895 52.3941 17.9606C53.1232 17.2316 54.0919 16.8672 55.3009 16.8672H64.3678V20.334H56.901C56.6343 20.334 56.4119 20.4229 56.2343 20.6006C56.0566 20.7784 55.9676 21.0006 55.9676 21.2673C55.9676 21.534 56.0566 21.7562 56.2343 21.934C56.4119 22.1118 56.6343 22.2007 56.901 22.2007H61.7011C62.9101 22.2007 63.8788 22.5651 64.6079 23.2941C65.3369 24.023 65.7012 24.9919 65.7012 26.2008V27.2675C65.7012 28.4764 65.3369 29.4453 64.6079 30.1743C63.8788 30.9032 62.9101 31.2676 61.7011 31.2676C58.5543 31.2676 55.1766 31.0899 51.5675 30.7343V27.2675Z" fill="black"/>
<path d="M45.9386 17.334L45.668 31.0011H50.0014V17.334H45.9386Z" fill="black"/>
<path d="M44.5762 13.218L46.4656 9.34375L50.7344 9.94367L51.4827 14.1887L47.6769 16.2124L44.5762 13.218Z" fill="black"/>
<defs>
<linearGradient id="paint0_linear_649_10065" x1="33.3356" y1="-0.000886534" x2="33.3356" y2="45.5048" gradientUnits="userSpaceOnUse">
<stop offset="0.005" stop-color="#A855F7"/>
<stop offset="1" stop-color="#6366F1"/>
</linearGradient>
<linearGradient id="paint1_linear_649_10065" x1="11.833" y1="-0.000886534" x2="11.833" y2="45.5048" gradientUnits="userSpaceOnUse">
<stop offset="0.005" stop-color="#A855F7"/>
<stop offset="1" stop-color="#6366F1"/>
</linearGradient>
</defs>
</svg>
